<svg width="119" height="235" viewBox="0 0 119 235" fill="none" xmlns="http://www.w3.org/2000/svg">
<path d="M89.48 34.6V63.28C77.84 56.68 69.8 46.72 64.52 34.6H89.48ZM28.04 34.6H47.24C45.2 47.8 40.28 63.52 28.04 76.6V34.6ZM95.96 22.6L88.28 31.24H63.08C60.92 25.48 59.24 19.24 58.16 12.64C63.44 12.28 67.52 11.2 69.2 9.28L56.48 0.399998L51.8 7.72H33.8L34.88 11.08H55.04C55.52 18.28 56.24 25 57.2 31.24H29.36L10.64 24.04V114.4H13.4C20.72 114.4 28.04 110.32 28.04 108.28V80.32C46.76 71.44 55.64 59.08 60.44 46.24C64.52 60.88 71.12 72.28 81.68 80.92C82.88 76.72 85.76 72.52 89.48 69.64V93.4C89.48 94.96 88.88 95.92 86.84 95.92C82.64 95.92 67.64 94.96 67.64 94.96V96.52C75.2 97.72 78.08 99.76 80.6 102.52C83 105.16 83.84 109.12 84.44 114.88C104.24 113.08 107.12 106.72 107.12 95.2V37.36C109.52 36.88 111.08 35.8 111.8 34.84L95.96 22.6ZM21.44 166.96V185.32H17.36V166.96H21.44ZM7.28 195.04H9.08C14.12 195.04 17.36 192.64 17.36 191.92V188.68H21.44V193.48H23.12C26.24 193.48 31.52 191.8 31.64 191.08V167.8C33.2 167.44 34.4 166.72 34.88 166.12L25.28 158.8L20.6 163.6H18.92L7.52 159.04C20.24 151.24 31.16 139.96 37.64 129.76C43.88 135.88 48.44 143.8 50 149.2C62.24 158.2 78.8 132.76 38.6 128.32V128.2C42.2 127.96 43.52 127 44 125.32L21.32 119.56C18.56 131.32 10.28 150.16 0.8 161.56L1.64 162.28C3.56 161.32 5.48 160.24 7.28 159.16V195.04ZM45.68 185.32V166.96H49.88V185.32H45.68ZM51.68 193.48C54.8 193.48 60.2 191.8 60.32 191.08V167.8C61.88 167.44 63.08 166.72 63.56 166.12L53.72 158.8L49.04 163.6H47.12L35.36 158.92V195.04H37.16C42.32 195.04 45.68 192.64 45.68 191.92V188.68H49.88V193.48H51.68ZM34.16 152.56H18.2L19.16 155.92H51.8C53.48 155.92 54.68 155.32 55.04 154C49.88 149.56 41.6 143.44 41.6 143.44L34.16 152.56ZM40.16 195.16C40.04 203.68 38.48 211.36 35.96 218.08C35.84 214.6 32.84 210.76 24.8 208.72C25.76 206.68 26.6 204.64 27.32 202.36C29.96 202.24 31.4 201.16 31.88 199.6L13.52 195.16C12.32 210.04 7.76 223.72 1.64 233.2L3.08 234.28C11.12 229.48 17.72 222.64 22.76 213.16C23.84 216.04 24.32 219.16 23.96 222.16C27.44 225.4 31.4 224.92 33.8 222.88C31.88 226.48 29.6 229.84 27.08 232.72L28.4 233.8C37.88 229.96 45.08 223.84 50 213.88C51.68 217.24 52.76 221.08 52.76 224.68C63.8 233.56 76.04 213.76 52.28 208.96C53.12 206.68 53.84 204.4 54.56 201.88C57.2 201.76 58.64 200.68 59 199L40.16 195.16ZM90.92 151.24C90.68 163.84 89.24 176.32 86 188.08C82.04 180.76 79.04 172.48 76.88 163.12C79.16 159.4 81.08 155.44 83 151.24H90.92ZM114.08 151.24C115.88 151.24 117.2 150.64 117.56 149.32C111.92 144.28 102.44 136.72 102.44 136.72L94.16 147.88H84.32C86.72 142 88.76 135.52 90.44 128.68C93.2 128.56 94.64 127.48 95.12 125.92L72.32 120.64C71.24 142 66.56 164.92 60.56 180.64L62 181.48C66.68 177.16 70.88 172.36 74.6 166.72C76.04 179.32 78.2 190.84 81.56 200.92C76.28 213.04 68.6 224.2 57.2 233.44L57.92 234.4C70.28 229.12 79.76 222.28 86.96 214.12C91.04 222.16 96.32 229 103.16 234.4C105.32 226.72 109.88 222.04 118.04 220.24L118.4 219.04C109.4 214.6 101.84 208.96 95.72 202.12C104.36 187.24 108.08 169.6 109.64 151.24H114.08Z" fill="#A8A8A8"/>
</svg>
