<svg width="117" height="235" viewBox="0 0 117 235" fill="none" xmlns="http://www.w3.org/2000/svg">
<path d="M19.96 85.24C25.48 89.68 31.24 97.36 33.28 104.68C49.36 113.2 59.56 82.48 20.8 84.52L19.96 85.24ZM66.04 62.44V54.4H82.24V57.28C80.08 57.16 77.8 57.04 75.4 57.04L74.92 58.48C77.8 59.56 80.32 60.88 82.6 62.32L66.04 62.44ZM34.36 51.04V41.2H49.84V51.04H34.36ZM49.84 27.88V37.84H34.36V27.88H49.84ZM82.24 27.88V37.84H66.04V27.88H82.24ZM82.24 51.04H66.04V41.2H82.24V51.04ZM98.2 30.52C100.6 29.92 102.28 28.84 103 27.88L88.12 16.72L81.04 24.52H66.04V16.12H109.72C111.4 16.12 112.72 15.52 113.08 14.2C107.8 9.4 98.8 2.31999 98.8 2.31999L91 12.76H66.04V5.56C69.28 5.07999 70.24 3.88 70.48 2.2L49.84 0.399998V12.76H3.16L4.12 16.12H49.84V24.52H35.32L18.64 18.16V59.08H20.8C27.28 59.08 34.36 55.72 34.36 54.4H49.84V62.44C31.72 62.44 16.84 62.44 8.08 62.2L16.24 78.52C17.56 78.28 18.88 77.44 19.84 76C50.56 71.8 71.68 68.56 86.92 65.56C89.8 68.08 91.72 70.72 93.04 73.12C94.36 74.56 96.04 75.4 97.6 75.88L95.08 79.36H87.04V74.8C89.56 74.44 90.76 73.48 91 71.68L70.84 70.12V79.36H1.12L2.08 82.72H70.84V95.44C70.84 96.64 70.36 97.24 68.68 97.24C66.28 97.24 53.56 96.4 53.56 96.4V97.96C59.68 99.04 62.2 100.84 64.12 103.24C66.04 105.64 66.64 109.36 67 114.4C84.64 112.84 87.04 107.08 87.04 96.16V82.72H112.72C114.4 82.72 115.6 82.12 115.96 80.8C113.44 78.4 109.96 75.4 107.2 73C111.16 68.44 108.88 60.28 87.04 57.76C92.2 57.16 98.08 54.64 98.2 53.68V30.52ZM53.56 121.72C59.44 127.48 65.8 136.48 68.32 144.76C84.4 154.24 95.32 123.16 54.4 121L53.56 121.72ZM9.88 123.52C14.44 128.32 19.84 136 22 142.96C37.48 151.6 48.16 122.92 10.72 122.8L9.88 123.52ZM0.88 151.24C5.2 155.8 9.88 163.12 11.32 169.96C26.08 179.2 37.84 151.12 1.72 150.52L0.88 151.24ZM92.2 225.52H82.6V186.4H108.16C109.96 186.4 111.28 185.8 111.52 184.48C106.36 179.56 97.48 172.24 97.48 172.24L89.56 183.04H82.6V151.48H111.04C112.84 151.48 114.16 150.88 114.52 149.56C109 144.4 99.52 136.6 99.52 136.6L91.12 148.12H40.6L43.72 138.04L42.04 137.56C16.96 190.72 16.96 190.72 13.84 195.64C12.4 198.16 11.92 198.16 9.88 198.16H4.24V200.32C6.76 200.44 9.04 201.16 10.72 202.36C13.72 204.28 14.2 215.92 11.68 228.28C13 233.08 16.6 234.52 19.84 234.52C26.8 234.52 31.72 229.96 31.84 223.72C32.2 212.92 26.44 209.56 26.2 202.6C26.08 199.48 27.16 194.68 28.24 190.24C29.56 184.36 35.56 164.32 40.48 148.48L41.32 151.48H64.84V183.04H40.48L41.44 186.4H64.84V225.52H34.72L35.68 228.88H112.96C114.76 228.88 116.08 228.28 116.44 226.96C110.68 221.56 100.96 213.52 100.96 213.52L92.2 225.52Z" fill="#A8A8A8"/>
</svg>
