<svg width="4800" height="1600" viewBox="0 0 4800 1600" fill="none" xmlns="http://www.w3.org/2000/svg">
<circle cx="2292" cy="1317" r="20" stroke="white" stroke-width="2"/>
<path d="M2315.29 1344C2313.79 1335.9 2313 1327.54 2313 1319C2313 1309.05 2314.07 1299.34 2316.1 1290M2315.29 1344H2292C2277.09 1344 2265 1331.91 2265 1317C2265 1302.09 2277.09 1290 2292 1290H2316.1M2315.29 1344C2316.2 1348.9 2317.37 1353.7 2318.79 1358.4M2316.1 1290C2329.39 1228.82 2383.84 1183 2449 1183C2524.11 1183 2585 1243.89 2585 1319C2585 1394.11 2524.11 1455 2449 1455C2421.82 1455 2396.5 1447.03 2375.26 1433.29M2318.79 1358.4L2292.34 1385.34C2291.77 1385.93 2292.12 1386.93 2292.93 1387.05C2330.04 1392.88 2345.19 1412.99 2340.56 1450.27C2340.46 1451.08 2341.32 1451.69 2342.05 1451.3L2375.26 1433.29M2318.79 1358.4C2328.21 1389.56 2348.5 1415.99 2375.26 1433.29" stroke="white" stroke-width="4"/>
<circle cx="2449" cy="1319" r="120" stroke="white" stroke-width="2"/>
<circle cx="2449" cy="1319" r="102" stroke="white" stroke-width="4"/>
<circle cx="2449" cy="1319" r="94" fill="black" stroke="black" stroke-width="2"/>
<path fill-rule="evenodd" clip-rule="evenodd" d="M2541.19 1342.03C2532.73 1376 2506 1402.73 2472.03 1411.19C2466.95 1403.36 2464 1394.03 2464 1384C2464 1356.39 2486.39 1334 2514 1334C2524.03 1334 2533.36 1336.95 2541.19 1342.03Z" fill="white"/>
<path fill-rule="evenodd" clip-rule="evenodd" d="M2379 1324C2420.42 1324 2454 1290.42 2454 1249C2454 1240.24 2452.5 1231.82 2449.73 1224C2449.49 1224 2449.24 1224 2449 1224C2396.53 1224 2354 1266.53 2354 1319C2354 1319.24 2354 1319.49 2354 1319.73C2361.82 1322.5 2370.24 1324 2379 1324Z" fill="white"/>
<circle cx="2449" cy="1319" r="94" stroke="white" stroke-width="2"/>
<circle cx="2236.5" cy="1215.5" r="16.5" stroke="white" stroke-width="2"/>
<circle cx="2449" cy="1139" r="25" stroke="white" stroke-width="2"/>
<circle cx="2364" cy="1102.5" r="11.5" fill="black" stroke="white" stroke-width="2"/>
<rect x="2228" y="1085" width="109" height="23" rx="4" stroke="white" stroke-width="2"/>
<line x1="2230.5" y1="1086" x2="2230.5" y2="1107" stroke="white"/>
<line x1="2233.5" y1="1086" x2="2233.5" y2="1107" stroke="white"/>
<line x1="2236.5" y1="1086" x2="2236.5" y2="1107" stroke="white"/>
<line x1="2240.5" y1="1086" x2="2240.5" y2="1107" stroke="white"/>
<line x1="2244.5" y1="1086" x2="2244.5" y2="1107" stroke="white"/>
<line x1="2249.5" y1="1086" x2="2249.5" y2="1107" stroke="white"/>
<line x1="2254.5" y1="1086" x2="2254.5" y2="1107" stroke="white"/>
<line x1="2259.5" y1="1086" x2="2259.5" y2="1107" stroke="white"/>
<line x1="2264.5" y1="1086" x2="2264.5" y2="1107" stroke="white"/>
<line x1="2270.5" y1="1086" x2="2270.5" y2="1107" stroke="white"/>
<line x1="2276.5" y1="1086" x2="2276.5" y2="1107" stroke="white"/>
<line x1="2282.5" y1="1086" x2="2282.5" y2="1107" stroke="white"/>
<line x1="2288.5" y1="1086" x2="2288.5" y2="1107" stroke="white"/>
<line x1="2294.5" y1="1086" x2="2294.5" y2="1107" stroke="white"/>
<line x1="2300.5" y1="1086" x2="2300.5" y2="1107" stroke="white"/>
<line x1="2305.5" y1="1086" x2="2305.5" y2="1107" stroke="white"/>
<line x1="2310.5" y1="1086" x2="2310.5" y2="1107" stroke="white"/>
<line x1="2315.5" y1="1086" x2="2315.5" y2="1107" stroke="white"/>
<line x1="2320.5" y1="1086" x2="2320.5" y2="1107" stroke="white"/>
<line x1="2324.5" y1="1086" x2="2324.5" y2="1107" stroke="white"/>
<line x1="2328.5" y1="1086" x2="2328.5" y2="1107" stroke="white"/>
<line x1="2331.5" y1="1086" x2="2331.5" y2="1107" stroke="white"/>
<line x1="2334.5" y1="1086" x2="2334.5" y2="1107" stroke="white"/>
<path d="M2709 1083H2746C2747.1 1083 2748 1083.9 2748 1085V1099C2748 1100.1 2747.1 1101 2746 1101H2709V1083Z" stroke="white" stroke-width="2"/>
<path d="M2711 1101H2745V1119C2745 1121.21 2743.21 1123 2741 1123H2711V1101Z" stroke="white" stroke-width="2"/>
<line x1="2716.5" y1="1083.78" x2="2716.5" y2="1100.22" stroke="white"/>
<line x1="2721.5" y1="1083.78" x2="2721.5" y2="1100.22" stroke="white"/>
<line x1="2726.5" y1="1083.78" x2="2726.5" y2="1100.22" stroke="white"/>
<line x1="2731.5" y1="1083.78" x2="2731.5" y2="1100.22" stroke="white"/>
<line x1="2735.5" y1="1083.78" x2="2735.5" y2="1100.22" stroke="white"/>
<line x1="2739.5" y1="1083.78" x2="2739.5" y2="1100.22" stroke="white"/>
<line x1="2742.5" y1="1083.78" x2="2742.5" y2="1100.22" stroke="white"/>
<line x1="2745.5" y1="1083.78" x2="2745.5" y2="1100.22" stroke="white"/>
<rect x="2262.5" y="1129" width="50" height="34" rx="3" fill="black" stroke="white" stroke-width="2"/>
<circle cx="2287.5" cy="1146" r="10" fill="white"/>
<rect x="2567" y="1099" width="128" height="90" rx="4" stroke="white" stroke-width="4"/>
<rect x="2568" y="1111" width="126" height="66" fill="black" stroke="white" stroke-width="2"/>
<path d="M2613 1135.07C2613 1134.4 2613.33 1133.77 2613.9 1133.42C2625.3 1126.19 2636.7 1126.19 2648.1 1133.42C2648.67 1133.77 2649 1134.4 2649 1135.07V1156.93C2649 1157.6 2648.67 1158.23 2648.1 1158.58C2636.7 1165.81 2625.3 1165.81 2613.9 1158.58C2613.33 1158.23 2613 1157.6 2613 1156.93V1135.07Z" fill="white"/>
<path d="M2746.5 1436H2748.5C2749.6 1436 2750.5 1436.9 2750.5 1438V1462C2750.5 1463.1 2749.6 1464 2748.5 1464H2746.5V1436Z" stroke="white" stroke-width="2"/>
<path d="M2166 1087V1107M2172 1087V1107M2178 1087V1107M2184 1087V1107M2190 1100V1088C2190 1086.9 2189.1 1086 2188 1086H2162C2160.9 1086 2160 1086.9 2160 1088V1100M2190 1100H2214V1086C2214 1084.34 2212.66 1083 2211 1083H2139C2137.34 1083 2136 1084.34 2136 1086V1100H2160M2190 1100V1102M2190 1102V1106C2190 1107.1 2189.1 1108 2188 1108H2162C2160.9 1108 2160 1107.1 2160 1106V1102M2190 1102H2214C2215.1 1102 2216 1102.9 2216 1104V1110H2134V1104C2134 1102.9 2134.9 1102 2136 1102H2160M2160 1100V1102M2192 1083V1081C2192 1079.9 2191.1 1079 2190 1079H2160C2158.9 1079 2158 1079.9 2158 1081V1083H2192Z" stroke="white" stroke-width="2"/>
<line x1="2108" y1="1182" x2="2448" y2="1182" stroke="white" stroke-width="2" stroke-linecap="round"/>
<path d="M2055 1206V1117C2055 1113.69 2057.69 1111 2061 1111H2341C2343.21 1111 2345 1109.21 2345 1107V1088C2345 1085.79 2346.79 1084 2349 1084H2708C2709.1 1084 2710 1084.9 2710 1086V1124M2710 1124H2742C2744.21 1124 2746 1125.79 2746 1128V1206M2710 1124V1200C2710 1202.21 2708.21 1204 2706 1204H2698" stroke="white" stroke-width="4"/>
<path d="M2055 1455H2734.42C2735.37 1455 2736.19 1454.33 2736.37 1453.4C2738.27 1443.63 2740.35 1430 2746 1430M2055 1455V1474C2055 1477.31 2057.69 1480 2061 1480H2740C2743.31 1480 2746 1477.31 2746 1474V1430M2055 1455V1259M2746 1430V1259M2257 1204C2252.97 1196.84 2245.3 1192 2236.5 1192C2227.7 1192 2220.03 1196.84 2216 1204M2257 1204C2258.91 1207.4 2260 1211.32 2260 1215.5C2260 1228.48 2249.48 1239 2236.5 1239C2223.52 1239 2213 1228.48 2213 1215.5C2213 1211.32 2214.09 1207.4 2216 1204M2257 1204H2376.5M2216 1204H2055V1223M2522 1204H2746V1223" stroke="white" stroke-width="4"/>
<path d="M2757.38 1224.57C2764.64 1226.5 2770 1233.12 2770 1241C2770 1246.13 2767.73 1250.73 2764.14 1253.84M2757.38 1224.57C2756.58 1227.09 2756.11 1229.76 2756.02 1232.52M2757.38 1224.57C2758.73 1220.31 2761.02 1216.48 2764 1213.3M2751.29 1224H2744C2744 1224 2736 1224 2736 1241C2736 1258 2744 1258 2744 1258H2753C2755.06 1258 2757.03 1257.63 2758.86 1256.96M2751.29 1224C2750.53 1226.72 2750.09 1229.57 2750.01 1232.51M2751.29 1224C2753.38 1216.43 2757.92 1209.88 2764 1205.25M2750.01 1232.51C2750 1232.84 2750 1233.17 2750 1233.5C2750 1239.43 2751.46 1245.03 2754.03 1249.94M2750.01 1232.51C2746.51 1233.74 2744 1237.08 2744 1241C2744 1245.97 2748.03 1250 2753 1250C2753.35 1250 2753.69 1249.98 2754.03 1249.94M2756.02 1232.52C2756.01 1232.84 2756 1233.17 2756 1233.5C2756 1238.49 2757.24 1243.19 2759.42 1247.31M2756.02 1232.52C2759.5 1233.76 2762 1237.09 2762 1241C2762 1243.46 2761.02 1245.68 2759.42 1247.31M2754.03 1249.94C2756.13 1249.7 2758.02 1248.74 2759.42 1247.31M2758.86 1256.96C2765.36 1264.34 2774.89 1269 2785.5 1269C2805.11 1269 2821 1253.11 2821 1233.5C2821 1222.2 2815.72 1212.14 2807.5 1205.64M2758.86 1256.96C2760.81 1256.25 2762.6 1255.18 2764.14 1253.84M2764.14 1253.84C2769.51 1259.49 2777.09 1263 2785.5 1263C2801.79 1263 2815 1249.79 2815 1233.5C2815 1225.95 2812.16 1219.06 2807.5 1213.85" stroke="white" stroke-width="2"/>
<path d="M2043.62 1224.57C2036.36 1226.5 2031 1233.12 2031 1241C2031 1246.13 2033.27 1250.73 2036.86 1253.84M2043.62 1224.57C2044.42 1227.09 2044.89 1229.76 2044.98 1232.52M2043.62 1224.57C2042.27 1220.31 2039.98 1216.48 2037 1213.3M2049.71 1224H2057C2057 1224 2065 1224 2065 1241C2065 1258 2057 1258 2057 1258H2048C2045.94 1258 2043.97 1257.63 2042.14 1256.96M2049.71 1224C2050.47 1226.72 2050.91 1229.57 2050.99 1232.51M2049.71 1224C2047.62 1216.43 2043.08 1209.88 2037 1205.25M2050.99 1232.51C2051 1232.84 2051 1233.17 2051 1233.5C2051 1239.43 2049.54 1245.03 2046.97 1249.94M2050.99 1232.51C2054.49 1233.74 2057 1237.08 2057 1241C2057 1245.97 2052.97 1250 2048 1250C2047.65 1250 2047.31 1249.98 2046.97 1249.94M2044.98 1232.52C2044.99 1232.84 2045 1233.17 2045 1233.5C2045 1238.49 2043.76 1243.19 2041.58 1247.31M2044.98 1232.52C2041.5 1233.76 2039 1237.09 2039 1241C2039 1243.46 2039.98 1245.68 2041.58 1247.31M2046.97 1249.94C2044.87 1249.7 2042.98 1248.74 2041.58 1247.31M2042.14 1256.96C2035.64 1264.34 2026.11 1269 2015.5 1269C1995.89 1269 1980 1253.11 1980 1233.5C1980 1222.2 1985.28 1212.14 1993.5 1205.64M2042.14 1256.96C2040.19 1256.25 2038.4 1255.18 2036.86 1253.84M2036.86 1253.84C2031.49 1259.49 2023.91 1263 2015.5 1263C1999.21 1263 1986 1249.79 1986 1233.5C1986 1225.95 1988.84 1219.06 1993.5 1213.85" stroke="white" stroke-width="2"/>
<path d="M2627.23 1300.76L2634.24 1260.99C2635.39 1254.47 2631.03 1248.24 2624.5 1247.09C2617.98 1245.94 2611.75 1250.3 2610.6 1256.83L2603.59 1296.59M2627.23 1300.76C2624.16 1298.04 2620.32 1296.11 2615.99 1295.35C2611.66 1294.59 2607.4 1295.09 2603.59 1296.59M2627.23 1300.76C2633.02 1305.88 2636.09 1313.81 2634.65 1321.99C2632.45 1334.5 2620.52 1342.86 2608.01 1340.65C2595.5 1338.44 2587.14 1326.52 2589.35 1314.01C2590.79 1305.83 2596.39 1299.42 2603.59 1296.59" stroke="white" stroke-width="2"/>
<circle cx="2622.42" cy="1258.91" r="8" transform="rotate(10 2622.42 1258.91)" stroke="white" stroke-width="2"/>
<rect x="2776" y="1055" width="19" height="116" stroke="white" stroke-width="2" stroke-linejoin="round" stroke-dasharray="10 6"/>
<rect x="2006" y="1055" width="19" height="116" stroke="white" stroke-width="2" stroke-linejoin="round" stroke-dasharray="10 6"/>
<path d="M2792.93 536.431L2794.93 536.44V536.431H2792.93ZM2800.2 765.591L2802.19 765.467L2802.19 765.458L2800.2 765.591ZM2807.47 1006.38H2809.47H2807.47ZM2807.47 1219.55V1221.55C2808.57 1221.55 2809.47 1220.66 2809.47 1219.55H2807.47ZM2763.86 1219.55H2761.86C2761.86 1220.66 2762.76 1221.55 2763.86 1221.55V1219.55ZM2763.86 1006.38H2765.86C2765.86 1006.37 2765.86 1006.35 2765.86 1006.34L2763.86 1006.38ZM2778.4 536.431H2776.4C2776.4 536.446 2776.4 536.461 2776.4 536.475L2778.4 536.431ZM2008.07 536.431H2006.07L2006.07 536.44L2008.07 536.431ZM1993.53 1006.38H1995.53L1995.53 1006.37L1993.53 1006.38ZM1993.53 1219.55H1991.53C1991.53 1220.66 1992.43 1221.55 1993.53 1221.55V1219.55ZM2037.14 1219.55V1221.55C2038.24 1221.55 2039.14 1220.66 2039.14 1219.55H2037.14ZM2037.14 1006.38L2035.14 1006.34C2035.14 1006.35 2035.14 1006.37 2035.14 1006.38H2037.14ZM2022.6 536.431L2024.6 536.475C2024.6 536.461 2024.6 536.446 2024.6 536.431H2022.6ZM2608.98 221.136L2607.67 222.653L2608.98 221.136ZM2192.02 221.136L2190.92 219.469L2192.02 221.136ZM2668.42 622.669L2669.43 620.941C2669.41 620.932 2669.39 620.922 2669.38 620.913L2668.42 622.669ZM2672.29 639.626L2670.63 638.516C2670.63 638.523 2670.62 638.529 2670.62 638.535L2672.29 639.626ZM2566.68 741.852L2567.71 743.567L2567.71 743.563L2566.68 741.852ZM2127.74 641.079L2126.05 642.153C2126.05 642.158 2126.06 642.164 2126.06 642.169L2127.74 641.079ZM2131.13 624.607L2130.23 622.818C2130.17 622.849 2130.11 622.883 2130.05 622.92L2131.13 624.607ZM2132.1 624.122L2132.99 625.911C2133.05 625.88 2133.11 625.847 2133.17 625.81L2132.1 624.122ZM2148.57 627.514L2150.26 626.448L2150.26 626.44L2148.57 627.514ZM2549.24 726.348L2548.24 724.616L2548.23 724.617L2549.24 726.348ZM2652.43 627.029L2650.77 625.92C2650.76 625.937 2650.74 625.955 2650.73 625.973L2652.43 627.029ZM2126.94 629.609L2128.78 630.401L2126.94 629.609ZM2673.9 629.874L2671.97 630.392L2673.9 629.874ZM2400.5 146C2615.96 146 2790.93 320.972 2790.93 536.431H2794.93C2794.93 318.763 2618.17 142 2400.5 142V146ZM2792.93 536.431C2790.93 536.422 2790.93 536.423 2790.93 536.424C2790.93 536.425 2790.93 536.426 2790.93 536.428C2790.93 536.431 2790.93 536.437 2790.93 536.444C2790.93 536.458 2790.93 536.478 2790.93 536.506C2790.93 536.561 2790.93 536.643 2790.93 536.752C2790.93 536.97 2790.93 537.295 2790.93 537.723C2790.93 538.58 2790.92 539.851 2790.93 541.51C2790.93 544.827 2790.94 549.694 2790.98 555.898C2791.05 568.306 2791.23 586.059 2791.66 607.447C2792.51 650.221 2794.32 707.545 2798.2 765.724L2802.19 765.458C2798.32 707.362 2796.5 650.106 2795.66 607.368C2795.23 586.001 2795.05 568.266 2794.98 555.874C2794.94 549.678 2794.93 544.818 2794.93 541.508C2794.92 539.852 2794.93 538.585 2794.93 537.731C2794.93 537.304 2794.93 536.981 2794.93 536.765C2794.93 536.656 2794.93 536.575 2794.93 536.521C2794.93 536.494 2794.93 536.473 2794.93 536.46C2794.93 536.453 2794.93 536.448 2794.93 536.444C2794.93 536.443 2794.93 536.442 2794.93 536.441C2794.93 536.44 2794.93 536.44 2792.93 536.431ZM2798.2 765.716C2801.83 823.815 2803.65 883.981 2804.56 929.629C2805.01 952.451 2805.24 971.641 2805.35 985.124C2805.41 991.866 2805.44 997.181 2805.45 1000.81C2805.46 1002.62 2805.46 1004.02 2805.46 1004.96C2805.46 1005.43 2805.46 1005.78 2805.47 1006.02C2805.47 1006.14 2805.47 1006.23 2805.47 1006.29C2805.47 1006.32 2805.47 1006.34 2805.47 1006.36C2805.47 1006.36 2805.47 1006.37 2805.47 1006.37C2805.47 1006.38 2805.47 1006.38 2805.47 1006.38C2805.47 1006.38 2805.47 1006.38 2807.47 1006.38C2809.47 1006.38 2809.47 1006.38 2809.47 1006.38C2809.47 1006.38 2809.47 1006.38 2809.47 1006.37C2809.47 1006.37 2809.47 1006.36 2809.47 1006.36C2809.47 1006.34 2809.47 1006.32 2809.47 1006.29C2809.47 1006.23 2809.47 1006.14 2809.47 1006.02C2809.46 1005.78 2809.46 1005.42 2809.46 1004.95C2809.46 1004.01 2809.46 1002.61 2809.45 1000.79C2809.44 997.16 2809.41 991.839 2809.35 985.091C2809.24 971.595 2809.01 952.389 2808.56 929.549C2807.65 883.872 2805.83 823.644 2802.19 765.467L2798.2 765.716ZM2807.47 1217.55H2763.86V1221.55H2807.47V1217.55ZM2763.86 1006.38C2765.86 1006.34 2765.86 1006.34 2765.86 1006.34C2765.86 1006.34 2765.86 1006.33 2765.86 1006.33C2765.86 1006.33 2765.86 1006.32 2765.86 1006.31C2765.86 1006.3 2765.86 1006.27 2765.86 1006.24C2765.86 1006.17 2765.86 1006.06 2765.85 1005.93C2765.85 1005.66 2765.84 1005.25 2765.83 1004.72C2765.81 1003.65 2765.79 1002.07 2765.76 1000.02C2765.7 995.923 2765.62 989.962 2765.57 982.503C2765.45 967.585 2765.41 946.674 2765.68 922.708C2766.22 874.759 2768.04 814.637 2773.12 765.798L2769.14 765.385C2764.04 814.412 2762.23 874.683 2761.68 922.662C2761.41 946.659 2761.45 967.596 2761.57 982.534C2761.62 990.003 2761.7 995.973 2761.76 1000.08C2761.79 1002.13 2761.81 1003.71 2761.83 1004.79C2761.84 1005.32 2761.85 1005.73 2761.85 1006C2761.86 1006.14 2761.86 1006.25 2761.86 1006.31C2761.86 1006.35 2761.86 1006.38 2761.86 1006.39C2761.86 1006.4 2761.86 1006.41 2761.86 1006.41C2761.86 1006.42 2761.86 1006.42 2761.86 1006.42C2761.86 1006.42 2761.86 1006.42 2763.86 1006.38ZM2773.12 765.798C2778.21 716.774 2780.03 659.413 2780.58 614.336C2780.85 591.791 2780.81 572.307 2780.69 558.459C2780.63 551.534 2780.56 546.018 2780.5 542.232C2780.47 540.339 2780.44 538.879 2780.43 537.891C2780.42 537.397 2780.41 537.022 2780.4 536.769C2780.4 536.643 2780.4 536.548 2780.4 536.484C2780.4 536.452 2780.4 536.428 2780.4 536.411C2780.4 536.403 2780.4 536.397 2780.4 536.393C2780.4 536.391 2780.4 536.389 2780.4 536.388C2780.4 536.387 2780.4 536.387 2778.4 536.431C2776.4 536.475 2776.4 536.476 2776.4 536.477C2776.4 536.478 2776.4 536.479 2776.4 536.481C2776.4 536.485 2776.4 536.491 2776.4 536.499C2776.4 536.514 2776.4 536.538 2776.4 536.569C2776.4 536.632 2776.4 536.727 2776.4 536.852C2776.41 537.102 2776.42 537.476 2776.43 537.968C2776.45 538.951 2776.47 540.407 2776.5 542.295C2776.56 546.072 2776.63 551.578 2776.69 558.491C2776.81 572.319 2776.85 591.775 2776.58 614.287C2776.03 659.325 2774.22 716.543 2769.14 765.385L2773.12 765.798ZM2400.5 156.534C2230.8 156.534 2093.28 294.054 2093.28 463.759H2097.28C2097.28 296.263 2233 160.534 2400.5 160.534V156.534ZM2400.5 142C2182.83 142 2006.07 318.763 2006.07 536.431H2010.07C2010.07 320.972 2185.04 146 2400.5 146V142ZM2008.07 536.431C2006.07 536.44 2006.07 536.44 2006.07 536.441C2006.07 536.442 2006.07 536.443 2006.07 536.444C2006.07 536.448 2006.07 536.453 2006.07 536.46C2006.07 536.473 2006.07 536.494 2006.07 536.521C2006.07 536.575 2006.07 536.656 2006.07 536.765C2006.07 536.981 2006.07 537.304 2006.07 537.731C2006.07 538.585 2006.08 539.852 2006.07 541.508C2006.07 544.818 2006.06 549.678 2006.02 555.874C2005.95 568.266 2005.77 586.001 2005.34 607.368C2004.49 650.106 2002.68 707.362 1998.81 765.458L2002.8 765.724C2006.68 707.545 2008.49 650.221 2009.34 607.447C2009.77 586.059 2009.95 568.306 2010.02 555.898C2010.06 549.694 2010.07 544.827 2010.07 541.51C2010.08 539.851 2010.07 538.58 2010.07 537.723C2010.07 537.295 2010.07 536.97 2010.07 536.752C2010.07 536.643 2010.07 536.561 2010.07 536.506C2010.07 536.478 2010.07 536.458 2010.07 536.444C2010.07 536.437 2010.07 536.431 2010.07 536.428C2010.07 536.426 2010.07 536.425 2010.07 536.424C2010.07 536.423 2010.07 536.422 2008.07 536.431ZM1998.81 765.458C1994.93 823.641 1993.11 883.873 1992.26 929.552C1991.84 952.393 1991.66 971.599 1991.58 985.096C1991.54 991.845 1991.53 997.166 1991.53 1000.8C1991.53 1002.62 1991.53 1004.01 1991.53 1004.96C1991.53 1005.43 1991.53 1005.78 1991.53 1006.02C1991.53 1006.14 1991.53 1006.23 1991.53 1006.3C1991.53 1006.33 1991.53 1006.35 1991.53 1006.36C1991.53 1006.37 1991.53 1006.38 1991.53 1006.38C1991.53 1006.38 1991.53 1006.38 1991.53 1006.39C1991.53 1006.39 1991.53 1006.39 1993.53 1006.38C1995.53 1006.37 1995.53 1006.37 1995.53 1006.37C1995.53 1006.37 1995.53 1006.37 1995.53 1006.37C1995.53 1006.36 1995.53 1006.36 1995.53 1006.35C1995.53 1006.33 1995.53 1006.31 1995.53 1006.28C1995.53 1006.22 1995.53 1006.13 1995.53 1006.01C1995.53 1005.77 1995.53 1005.42 1995.53 1004.95C1995.53 1004.01 1995.53 1002.62 1995.53 1000.8C1995.53 997.175 1995.54 991.86 1995.58 985.119C1995.66 971.636 1995.84 952.447 1996.26 929.626C1997.11 883.98 1998.92 823.818 2002.8 765.724L1998.81 765.458ZM1991.53 1006.38V1219.55H1995.53V1006.38H1991.53ZM1993.53 1221.55H2037.14V1217.55H1993.53V1221.55ZM2039.14 1219.55V1006.38H2035.14V1219.55H2039.14ZM2037.14 1006.38C2039.14 1006.42 2039.14 1006.42 2039.14 1006.42C2039.14 1006.42 2039.14 1006.42 2039.14 1006.41C2039.14 1006.41 2039.14 1006.4 2039.14 1006.39C2039.14 1006.38 2039.14 1006.35 2039.14 1006.31C2039.14 1006.25 2039.14 1006.14 2039.15 1006C2039.15 1005.73 2039.16 1005.32 2039.17 1004.79C2039.19 1003.71 2039.21 1002.13 2039.24 1000.08C2039.3 995.973 2039.38 990.003 2039.43 982.534C2039.55 967.596 2039.59 946.659 2039.32 922.662C2038.77 874.683 2036.96 814.412 2031.86 765.385L2027.88 765.798C2032.96 814.637 2034.77 874.759 2035.32 922.708C2035.59 946.674 2035.55 967.585 2035.43 982.503C2035.38 989.962 2035.3 995.923 2035.24 1000.02C2035.21 1002.07 2035.19 1003.65 2035.17 1004.72C2035.16 1005.25 2035.15 1005.66 2035.15 1005.93C2035.14 1006.06 2035.14 1006.17 2035.14 1006.24C2035.14 1006.27 2035.14 1006.3 2035.14 1006.31C2035.14 1006.32 2035.14 1006.33 2035.14 1006.33C2035.14 1006.33 2035.14 1006.34 2035.14 1006.34C2035.14 1006.34 2035.14 1006.34 2037.14 1006.38ZM2031.86 765.385C2026.78 716.543 2024.97 659.325 2024.42 614.287C2024.15 591.775 2024.19 572.319 2024.31 558.491C2024.36 551.578 2024.44 546.072 2024.5 542.295C2024.53 540.407 2024.55 538.951 2024.57 537.968C2024.58 537.476 2024.59 537.102 2024.59 536.852C2024.6 536.727 2024.6 536.632 2024.6 536.569C2024.6 536.538 2024.6 536.514 2024.6 536.499C2024.6 536.491 2024.6 536.485 2024.6 536.481C2024.6 536.479 2024.6 536.478 2024.6 536.477C2024.6 536.476 2024.6 536.475 2022.6 536.431C2020.6 536.387 2020.6 536.387 2020.6 536.388C2020.6 536.389 2020.6 536.391 2020.6 536.393C2020.6 536.397 2020.6 536.403 2020.6 536.411C2020.6 536.428 2020.6 536.452 2020.6 536.484C2020.6 536.548 2020.6 536.643 2020.6 536.769C2020.59 537.022 2020.58 537.397 2020.57 537.891C2020.55 538.879 2020.53 540.339 2020.5 542.232C2020.44 546.018 2020.36 551.534 2020.31 558.459C2020.19 572.307 2020.15 591.791 2020.42 614.336C2020.97 659.413 2022.78 716.774 2027.88 765.798L2031.86 765.385ZM2400.5 160.534C2568 160.534 2703.72 296.263 2703.72 463.759H2707.72C2707.72 294.054 2570.2 156.534 2400.5 156.534V160.534ZM2722.26 463.759C2722.26 366.028 2678.87 278.588 2610.28 219.62L2607.67 222.653C2675.42 280.891 2718.26 367.239 2718.26 463.759H2722.26ZM2610.28 219.62C2553.99 171.223 2480.71 142 2400.5 142V146C2479.72 146 2552.08 174.858 2607.67 222.653L2610.28 219.62ZM2780.4 536.431C2780.4 403.994 2712.74 287.454 2610.08 219.469L2607.87 222.804C2709.45 290.078 2776.4 405.39 2776.4 536.431H2780.4ZM2024.6 536.431C2024.6 405.39 2091.54 290.078 2193.13 222.804L2190.92 219.469C2088.26 287.453 2020.6 403.994 2020.6 536.431H2024.6ZM2193.13 222.804C2252.55 183.448 2323.83 160.534 2400.5 160.534V156.534C2323.02 156.534 2250.98 179.692 2190.92 219.469L2193.13 222.804ZM2082.74 463.759C2082.74 367.239 2125.58 280.891 2193.33 222.653L2190.72 219.62C2122.13 278.588 2078.74 366.028 2078.74 463.759H2082.74ZM2670.62 638.535C2644.61 678.505 2609.46 713.656 2565.64 740.14L2567.71 743.563C2612.07 716.755 2647.65 681.171 2673.97 640.717L2670.62 638.535ZM2565.65 740.137C2416.38 829.696 2223.3 784.432 2129.41 639.989L2126.06 642.169C2221.12 788.417 2416.59 834.234 2567.71 743.567L2565.65 740.137ZM2132.02 626.396L2132.99 625.911L2131.2 622.333L2130.23 622.818L2132.02 626.396ZM2146.88 628.579C2232.23 764.172 2410.26 809.044 2550.24 728.079L2548.23 724.617C2410.12 804.501 2234.47 760.228 2150.26 626.448L2146.88 628.579ZM2550.24 728.08C2594.12 702.722 2629.25 668.092 2654.13 628.086L2650.73 625.973C2626.2 665.422 2591.55 699.588 2548.24 724.616L2550.24 728.08ZM2133.17 625.81C2135.02 624.634 2137.26 624.147 2139.47 624.338L2139.81 620.353C2136.81 620.094 2133.68 620.743 2131.02 622.435L2133.17 625.81ZM2139.47 624.338C2142.51 624.6 2145.31 626.114 2146.88 628.588L2150.26 626.44C2147.91 622.761 2143.9 620.705 2139.81 620.353L2139.47 624.338ZM2093.28 463.759C2093.28 522.219 2109.6 576.867 2137.93 623.386L2141.35 621.305C2113.38 575.395 2097.28 521.465 2097.28 463.759H2093.28ZM2129.42 640.006C2127.63 637.188 2127.45 633.47 2128.78 630.401L2125.1 628.817C2123.3 632.998 2123.49 638.125 2126.05 642.153L2129.42 640.006ZM2128.78 630.401C2129.51 628.712 2130.67 627.27 2132.2 626.294L2130.05 622.92C2127.77 624.37 2126.12 626.47 2125.1 628.817L2128.78 630.401ZM2128.65 628.572C2099.51 580.545 2082.74 524.145 2082.74 463.759H2078.74C2078.74 524.895 2095.72 582.01 2125.23 630.647L2128.65 628.572ZM2654.09 628.139C2656.18 625.009 2659.18 623.424 2662.16 623.235L2661.9 619.243C2657.63 619.514 2653.52 621.79 2650.77 625.92L2654.09 628.139ZM2662.16 623.235C2663.96 623.12 2665.79 623.513 2667.46 624.425L2669.38 620.913C2667.04 619.641 2664.46 619.08 2661.9 619.243L2662.16 623.235ZM2703.72 463.759C2703.72 521.005 2687.87 574.535 2660.32 620.206L2663.74 622.272C2691.66 575.995 2707.72 521.753 2707.72 463.759H2703.72ZM2667.41 624.397C2669.73 625.746 2671.31 627.934 2671.97 630.392L2675.83 629.355C2674.91 625.93 2672.7 622.849 2669.43 620.941L2667.41 624.397ZM2671.97 630.392C2672.68 633.05 2672.31 635.998 2670.63 638.516L2673.96 640.735C2676.31 637.21 2676.83 633.067 2675.83 629.355L2671.97 630.392ZM2675.61 630.913C2705.22 582.219 2722.26 525.007 2722.26 463.759H2718.26C2718.26 524.255 2701.43 580.751 2672.19 628.835L2675.61 630.913ZM2805.47 1006.38V1219.55H2809.47V1006.38H2805.47ZM2765.86 1219.55V1006.38H2761.86V1219.55H2765.86Z" fill="white"/>
<path d="M3027 871C3027 845.043 3048.04 824 3074 824H3297C3322.96 824 3344 845.043 3344 871V1431C3344 1456.96 3322.96 1478 3297 1478H3074C3048.04 1478 3027 1456.96 3027 1431V871Z" stroke="white" stroke-width="4"/>
<path d="M3345 992H3347C3348.1 992 3349 992.895 3349 994V1068C3349 1069.1 3348.1 1070 3347 1070H3345V992Z" stroke="white" stroke-width="2"/>
<path d="M3022 976C3022 974.895 3022.9 974 3024 974H3026V1024H3024C3022.9 1024 3022 1023.1 3022 1022V976Z" stroke="white" stroke-width="2"/>
<path d="M3022 928C3022 926.895 3022.9 926 3024 926H3026V952H3024C3022.9 952 3022 951.105 3022 950V928Z" stroke="white" stroke-width="2"/>
<path d="M3022 1039C3022 1037.9 3022.9 1037 3024 1037H3026V1087H3024C3022.9 1087 3022 1086.1 3022 1085V1039Z" stroke="white" stroke-width="2"/>
<path d="M3074 838C3055.77 838 3041 852.775 3041 871V1431C3041 1449.23 3055.77 1464 3074 1464H3297C3315.23 1464 3330 1449.23 3330 1431V871C3330 852.775 3315.23 838 3297 838H3268.67C3266.07 838 3263.91 839.983 3263.69 842.567L3263.43 845.473C3262.67 854.258 3255.32 861 3246.5 861H3124.5C3115.68 861 3108.33 854.258 3107.57 845.473L3107.31 842.567C3107.09 839.983 3104.93 838 3102.33 838H3074Z" stroke="white" stroke-width="2"/>
<rect x="3167.5" y="844.5" width="36" height="5" rx="2.5" fill="black" stroke="white"/>
<circle cx="3218" cy="847" r="4.5" fill="black" stroke="white"/>
<rect x="1394" y="1096" width="464" height="382" rx="23" stroke="white" stroke-width="4"/>
<path d="M1404.3 1462.98C1403.41 1461.57 1402.75 1460.01 1402.37 1458.34L1403.35 1458.12C1403.12 1457.12 1403 1456.07 1403 1455V1451.05H1402V1445.13H1403V1437.23H1402V1431.3H1403V1423.4H1402V1417.48H1403V1409.58H1402V1403.66H1403V1395.76H1402V1389.83H1403V1381.93H1402V1376.01H1403V1368.11H1402V1362.18H1403V1354.29H1402V1348.36H1403V1340.46H1402V1334.54H1403V1326.64H1402V1320.71H1403V1312.82H1402V1306.89H1403V1298.99H1402V1293.07H1403V1285.17H1402V1279.24H1403V1271.34H1402V1265.42H1403V1257.52H1402V1251.6H1403V1243.7H1402V1237.77H1403V1229.87H1402V1223.95H1403V1221H1406V1220H1412V1221H1420V1220H1426V1221H1434V1220H1440V1221H1448V1220H1454V1221H1462V1220H1468V1221H1476V1220H1482V1221H1490V1220H1496V1221H1504V1220H1510V1221H1518V1220H1524V1221H1532V1220H1538V1221H1546V1220H1552V1221H1560V1220H1566V1221H1574V1220H1580V1221H1588V1220H1594V1221H1602V1220H1608V1221H1616V1220H1622V1221H1630V1220H1636V1221H1644V1220H1650V1221H1658V1220H1664V1221H1672V1220H1678V1221H1686V1220H1692V1221H1700V1220H1706V1221H1714V1220H1720V1221H1728V1220H1734V1221H1742V1220H1748V1221H1756V1220H1762V1221H1770V1220H1776V1221H1784V1220H1790V1221H1798V1220H1804V1221H1812V1220H1818V1221H1826V1220H1832V1221H1840V1220H1846V1221H1849V1223.95H1850V1229.87H1849V1237.77H1850V1243.7H1849V1251.6H1850V1257.52H1849V1265.42H1850V1271.34H1849V1279.24H1850V1285.17H1849V1293.07H1850V1298.99H1849V1306.89H1850V1312.82H1849V1320.71H1850V1326.64H1849V1334.54H1850V1340.46H1849V1348.36H1850V1354.29H1849V1362.18H1850V1368.11H1849V1376.01H1850V1381.93H1849V1389.83H1850V1395.76H1849V1403.66H1850V1409.58H1849V1417.48H1850V1423.4H1849V1431.3H1850V1437.23H1849V1445.13H1850V1451.05H1849V1455C1849 1456.07 1848.88 1457.12 1848.65 1458.12L1849.63 1458.34C1849.25 1460.01 1848.59 1461.57 1847.7 1462.98L1846.86 1462.45C1845.74 1464.23 1844.23 1465.74 1842.45 1466.86L1842.98 1467.7C1841.57 1468.59 1840.01 1469.25 1838.34 1469.63L1838.12 1468.65C1837.12 1468.88 1836.07 1469 1835 1469H1831.02V1470H1825.05V1469H1817.09V1470H1811.11V1469H1803.15V1470H1797.18V1469H1789.22V1470H1783.25V1469H1775.29V1470H1769.31V1469H1761.35V1470H1755.38V1469H1747.42V1470H1741.45V1469H1733.49V1470H1727.51V1469H1719.55V1470H1713.58V1469H1705.62V1470H1699.65V1469H1691.69V1470H1685.71V1469H1677.75V1470H1671.78V1469H1663.82V1470H1657.85V1469H1649.89V1470H1643.91V1469H1635.95V1470H1629.98V1469H1622.02V1470H1616.05V1469H1608.09V1470H1602.11V1469H1594.15V1470H1588.18V1469H1580.22V1470H1574.25V1469H1566.29V1470H1560.31V1469H1552.35V1470H1546.38V1469H1538.42V1470H1532.45V1469H1524.49V1470H1518.51V1469H1510.55V1470H1504.58V1469H1496.62V1470H1490.65V1469H1482.69V1470H1476.71V1469H1468.75V1470H1462.78V1469H1454.82V1470H1448.85V1469H1440.89V1470H1434.91V1469H1426.95V1470H1420.98V1469H1417C1415.93 1469 1414.88 1468.88 1413.88 1468.65L1413.66 1469.63C1411.99 1469.25 1410.43 1468.59 1409.02 1467.7L1409.55 1466.86C1407.77 1465.74 1406.26 1464.23 1405.14 1462.45L1404.3 1462.98Z" stroke="white" stroke-width="2" stroke-dasharray="8 6"/>
<path d="M1413 1205C1413 1197.27 1419.27 1191 1427 1191H1825C1832.73 1191 1839 1197.27 1839 1205V1221H1413V1205Z" stroke="white" stroke-width="2"/>
<path d="M1413 1163C1413 1155.27 1419.27 1149 1427 1149H1825C1832.73 1149 1839 1155.27 1839 1163V1179H1413V1163Z" stroke="white" stroke-width="2"/>
<path d="M1413 1121C1413 1113.27 1419.27 1107 1427 1107H1825C1832.73 1107 1839 1113.27 1839 1121V1137H1413V1121Z" stroke="white" stroke-width="2"/>
<line x1="1396" y1="1138" x2="1856" y2="1138" stroke="white" stroke-width="4"/>
<line x1="1396" y1="1180" x2="1856" y2="1180" stroke="white" stroke-width="4"/>
<line x1="1396" y1="1222" x2="1856" y2="1222" stroke="white" stroke-width="4"/>
<path d="M3948 1323C3948 1286 3978 1256 4015 1256H4180C4217 1256 4247 1286 4247 1323V1411C4247 1448 4217 1478 4180 1478H4015C3978 1478 3948 1448 3948 1411V1323Z" stroke="white" stroke-width="4"/>
<line x1="3950" y1="1327.5" x2="4245" y2="1327.5" stroke="white"/>
<rect x="4031" y="1321" width="133" height="13" rx="6.5" stroke="white" stroke-width="2"/>
<circle cx="4097.5" cy="1365.5" r="2.5" fill="white"/>
<path d="M3716 1409C3692 1421 3699 1443.75 3694 1468.75C3691 1483.75 3595 1483.75 3592 1468.75C3587 1443.75 3594 1421 3570 1409M3570 1209C3594 1197 3587 1174.25 3592 1149.25C3595 1134.25 3691 1134.25 3694 1149.25C3699 1174.25 3692 1197 3716 1209M3736 1371C3736 1396.41 3715.41 1417 3690 1417H3596C3570.59 1417 3550 1396.41 3550 1371V1247C3550 1221.59 3570.59 1201 3596 1201H3690C3715.41 1201 3736 1221.59 3736 1247M3736 1316V1286" stroke="white" stroke-width="4" stroke-linecap="square"/>
<path d="M3733 1319.25C3733 1318.15 3733.9 1317.25 3735 1317.25H3737V1369.25H3735C3733.9 1369.25 3733 1368.35 3733 1367.25V1319.25Z" stroke="white" stroke-width="2"/>
<rect x="3559" y="1210" width="168" height="198" rx="37" stroke="white" stroke-width="2"/>
<path d="M3733.45 1251.14C3733.78 1249.32 3735.4 1248 3737.29 1248H3740.59C3742.7 1248 3744.43 1249.62 3744.55 1251.71C3745.15 1262.03 3745.15 1270.97 3744.55 1281.29C3744.43 1283.38 3742.7 1285 3740.59 1285H3737.29C3735.4 1285 3733.78 1283.68 3733.45 1281.86C3731.52 1271.09 3731.52 1261.91 3733.45 1251.14Z" stroke="white" stroke-width="2"/>
<rect x="3733.5" y="1250.25" width="10.5" height="0.5" stroke="white" stroke-width="0.5"/>
<rect x="3733.5" y="1252.25" width="10.5" height="0.5" stroke="white" stroke-width="0.5"/>
<rect x="3733.5" y="1254.25" width="10.5" height="0.5" stroke="white" stroke-width="0.5"/>
<rect x="3733.5" y="1257.25" width="10.5" height="0.5" stroke="white" stroke-width="0.5"/>
<rect x="3732.5" y="1260.25" width="11.5" height="0.5" stroke="white" stroke-width="0.5"/>
<rect x="3732.5" y="1263.25" width="11.5" height="0.5" stroke="white" stroke-width="0.5"/>
<rect x="3732.5" y="1266.25" width="11.5" height="0.5" stroke="white" stroke-width="0.5"/>
<rect x="3732.5" y="1269.25" width="11.5" height="0.5" stroke="white" stroke-width="0.5"/>
<rect x="3732.5" y="1272.25" width="11.5" height="0.5" stroke="white" stroke-width="0.5"/>
<rect x="3733.5" y="1275.25" width="10.5" height="0.5" stroke="white" stroke-width="0.5"/>
<rect x="3733.5" y="1278.25" width="10.5" height="0.5" stroke="white" stroke-width="0.5"/>
<rect x="3733.5" y="1280.25" width="10.5" height="0.5" stroke="white" stroke-width="0.5"/>
<rect x="3733.5" y="1282.25" width="10.5" height="0.5" stroke="white" stroke-width="0.5"/>
<path d="M4474 1449H4505V1473C4505 1476.31 4502.31 1479 4499 1479H4480C4476.69 1479 4474 1476.31 4474 1473V1449Z" stroke="white" stroke-width="2"/>
<rect x="4478" y="1467" width="2" height="7" rx="1" fill="white"/>
<rect x="4481" y="1467" width="2" height="7" rx="1" fill="white"/>
<rect x="4484" y="1467" width="2" height="7" rx="1" fill="white"/>
<rect x="4487" y="1467" width="2" height="7" rx="1" fill="white"/>
<rect x="4490" y="1467" width="2" height="7" rx="1" fill="white"/>
<rect x="4493" y="1467" width="2" height="7" rx="1" fill="white"/>
<rect x="4496" y="1467" width="2" height="7" rx="1" fill="white"/>
<rect x="4499" y="1467" width="2" height="7" rx="1" fill="white"/>
<rect x="4476.5" y="1464.5" width="26" height="12" rx="3.5" stroke="white"/>
<path d="M4470 1428V1445C4470 1446.66 4471.34 1448 4473 1448H4506C4507.66 1448 4509 1446.66 4509 1445V1428M4570 1349.5C4570 1393.96 4533.96 1430 4489.5 1430C4445.04 1430 4409 1393.96 4409 1349.5C4409 1305.04 4445.04 1269 4489.5 1269C4533.96 1269 4570 1305.04 4570 1349.5Z" stroke="white" stroke-width="4"/>
<path d="M193 1361.62L128.529 1381.5C123.67 1382.99 120.648 1387.92 121.948 1392.84C125.376 1405.8 130.507 1415.09 138.407 1424.72C141.518 1428.51 147.01 1429.15 151.106 1426.45L197.5 1395.92M449 1337.08L555 1326.24M443.5 1367.21L558 1354.93" stroke="white" stroke-width="4"/>
<path d="M811 1361.62L875.471 1381.5C880.33 1382.99 883.352 1387.92 882.052 1392.84C878.624 1405.8 873.493 1415.09 865.593 1424.72C862.482 1428.51 856.99 1429.15 852.894 1426.45L806.5 1395.92M560 1367.15L502.25 1361M449.5 1326.39L502.105 1331.72" stroke="white" stroke-width="4"/>
<path d="M813 1351.21L824.601 1352.89C829.661 1353.63 834.46 1350.43 835.725 1345.47L837.642 1337.97C839.63 1330.18 846.535 1324.66 854.564 1324.43L861.115 1324.24C863.279 1324.18 865 1322.4 865 1320.24V1294.93C865 1293.25 863.937 1291.74 862.353 1291.17C748.316 1249.99 646.752 1220.99 540.473 1272.9C538.99 1273.63 538.101 1275.21 538.253 1276.85L540.564 1301.69C541.382 1310.48 548.671 1317.26 557.5 1317.44V1317.44" stroke="white" stroke-width="4"/>
<path d="M191 1351.21L179.399 1352.89C174.339 1353.63 169.54 1350.43 168.275 1345.47L166.358 1337.97C164.37 1330.18 157.465 1324.66 149.436 1324.43L142.885 1324.24C140.721 1324.18 139 1322.4 139 1320.24V1294.93C139 1293.25 140.063 1291.74 141.647 1291.17C255.684 1249.99 357.248 1220.99 463.527 1272.9C465.01 1273.63 465.899 1275.21 465.747 1276.85L463.436 1301.69C462.618 1310.48 455.329 1317.26 446.5 1317.44V1317.44" stroke="white" stroke-width="4"/>
<path d="M681.445 1476.27C626.357 1473.38 594.463 1443.6 576.494 1409.81C558.465 1375.91 554.506 1338.02 555.479 1319.46C556.731 1295.57 572.696 1280.95 596.375 1272.6C620.112 1264.24 651.194 1262.39 681.555 1263.98C698.565 1264.87 732.198 1266.65 761.027 1278.18C775.42 1283.94 788.478 1292.07 797.675 1303.61C806.837 1315.11 812.273 1330.13 811.237 1349.89C810.109 1371.42 808.337 1404.69 794.225 1431.91C787.195 1445.47 777.126 1457.47 762.572 1465.77C748.017 1474.07 728.827 1478.75 703.415 1477.42L681.445 1476.27Z" stroke="white" stroke-width="4"/>
<path d="M562.037 1322.41C561.115 1340 564.86 1375.81 581.913 1407.88C598.938 1439.9 629.198 1468.15 681.402 1470.88L691.709 1471.42L702.075 1471.97C726.12 1473.23 744.353 1468.8 758.223 1460.89C772.093 1452.98 781.676 1441.55 788.353 1428.67C801.734 1402.86 803.399 1371.36 804.459 1351.13C805.444 1332.33 800.27 1317.99 791.506 1306.99C782.726 1295.97 770.29 1288.24 756.66 1282.79C729.378 1271.88 697.589 1270.21 681.598 1269.37C652.986 1267.87 623.604 1269.61 601.107 1277.53C578.639 1285.44 563.241 1299.43 562.037 1322.41Z" stroke="white" stroke-width="2"/>
<path d="M322.253 1476.27C377.341 1473.38 409.234 1443.6 427.204 1409.81C445.233 1375.91 449.191 1338.02 448.219 1319.46C446.967 1295.57 431.002 1280.95 407.323 1272.6C383.586 1264.24 352.504 1262.39 322.142 1263.98C305.132 1264.87 271.5 1266.65 242.671 1278.18C228.278 1283.94 215.219 1292.07 206.023 1303.61C196.861 1315.11 191.425 1330.13 192.461 1349.89C193.589 1371.42 195.36 1404.69 209.473 1431.91C216.503 1445.47 226.572 1457.47 241.126 1465.77C255.681 1474.07 274.871 1478.75 300.283 1477.42L322.253 1476.27Z" stroke="white" stroke-width="4"/>
<path d="M441.66 1322.41C442.582 1340 438.838 1375.81 421.784 1407.88C404.76 1439.9 374.5 1468.15 322.296 1470.88L311.988 1471.42L301.623 1471.97C277.577 1473.23 259.345 1468.8 245.475 1460.89C231.605 1452.98 222.022 1441.55 215.344 1428.67C201.964 1402.86 200.299 1371.36 199.239 1351.13C198.253 1332.33 203.428 1317.99 212.191 1306.99C220.971 1295.97 233.408 1288.24 247.038 1282.79C274.32 1271.88 306.108 1270.21 322.1 1269.37C350.711 1267.87 380.094 1269.61 402.591 1277.53C425.059 1285.44 440.456 1299.43 441.66 1322.41Z" stroke="white" stroke-width="2"/>
<path d="M464.452 1297.01L465.895 1280.42C480.293 1273.31 491.207 1269.88 502 1269.88C512.793 1269.88 523.707 1273.31 538.105 1280.42L539.56 1297.16C517.248 1278.18 486.055 1278.1 464.452 1297.01Z" stroke="white" stroke-width="4"/>
<path d="M194 1299.13C194 1299.18 193.973 1299.34 193.765 1299.63C193.56 1299.9 193.228 1300.23 192.752 1300.58C191.8 1301.3 190.393 1302.05 188.655 1302.73C185.184 1304.09 180.558 1305.13 176 1305.13C171.285 1305.13 167.619 1305.06 165.134 1304.67C163.884 1304.48 163.047 1304.21 162.544 1303.91C162.096 1303.63 162 1303.39 162 1303.13C162 1303.09 162.024 1302.92 162.272 1302.59C162.508 1302.28 162.886 1301.91 163.415 1301.5C164.471 1300.69 166.011 1299.81 167.876 1299.01C171.607 1297.39 176.471 1296.13 181 1296.13C185.676 1296.13 189.062 1296.44 191.25 1297.05C192.345 1297.36 193.055 1297.72 193.476 1298.09C193.864 1298.43 194 1298.76 194 1299.13Z" stroke="white" stroke-width="2"/>
<path d="M810 1299.13C810 1299.18 810.027 1299.34 810.235 1299.63C810.44 1299.9 810.772 1300.23 811.248 1300.58C812.2 1301.3 813.607 1302.05 815.345 1302.73C818.816 1304.09 823.442 1305.13 828 1305.13C832.715 1305.13 836.381 1305.06 838.866 1304.67C840.116 1304.48 840.953 1304.21 841.456 1303.91C841.904 1303.63 842 1303.39 842 1303.13C842 1303.09 841.976 1302.92 841.728 1302.59C841.492 1302.28 841.114 1301.91 840.585 1301.5C839.529 1300.69 837.989 1299.81 836.124 1299.01C832.393 1297.39 827.529 1296.13 823 1296.13C818.324 1296.13 814.938 1296.44 812.75 1297.05C811.655 1297.36 810.945 1297.72 810.524 1298.09C810.136 1298.43 810 1298.76 810 1299.13Z" stroke="white" stroke-width="2"/>
<circle cx="1060.03" cy="1357.1" r="52" transform="rotate(30 1060.03 1357.1)" stroke="white" stroke-width="2"/>
<line x1="1148.61" y1="1333" x2="1148.61" y2="1479" stroke="white" stroke-width="2" stroke-linecap="round"/>
<line x1="1155.61" y1="1333" x2="1155.61" y2="1479" stroke="white" stroke-width="2" stroke-linecap="round"/>
<line x1="1189.14" y1="1302.08" x2="1274.14" y2="1449.3" stroke="white" stroke-width="2" stroke-linecap="round"/>
<line x1="1195.2" y1="1298.58" x2="1280.2" y2="1445.8" stroke="white" stroke-width="2" stroke-linecap="round"/>
<path d="M1175.11 1333.5C1173.87 1334.22 1173.11 1335.54 1173.11 1336.97V1459.34C1173.11 1460.4 1172.69 1461.42 1171.94 1462.17L1154.94 1479.17C1153.37 1480.73 1150.84 1480.73 1149.28 1479.17L1131.4 1461.29C1131.21 1461.11 1131.11 1460.85 1131.11 1460.59V1460.41C1131.11 1460.15 1131.21 1459.89 1131.4 1459.71L1138.82 1452.29C1139 1452.11 1139.11 1451.85 1139.11 1451.59V1436.41C1139.11 1436.15 1139 1435.89 1138.82 1435.71L1131.4 1428.29C1131.21 1428.11 1131.11 1427.85 1131.11 1427.59V1420.41C1131.11 1420.15 1131.21 1419.89 1131.4 1419.71L1138.82 1412.29C1139 1412.11 1139.11 1411.85 1139.11 1411.59V1404.41C1139.11 1404.15 1139 1403.89 1138.82 1403.71L1131.4 1396.29C1131.21 1396.11 1131.11 1395.85 1131.11 1395.59V1380.41C1131.11 1380.15 1131.21 1379.89 1131.4 1379.71L1138.82 1372.29C1139 1372.11 1139.11 1371.85 1139.11 1371.59V1364.41C1139.11 1364.15 1139 1363.89 1138.82 1363.71L1131.4 1356.29C1131.21 1356.11 1131.11 1355.85 1131.11 1355.59V1336.97C1131.11 1336.27 1130.92 1335.59 1130.59 1335M1213.21 1225.79C1221.66 1213.65 1226.61 1198.91 1226.61 1183C1226.61 1141.58 1193.03 1108 1151.61 1108C1110.19 1108 1076.61 1141.58 1076.61 1183C1076.61 1203.16 1084.56 1221.47 1097.51 1234.94M1213.21 1225.79C1213.29 1225.91 1213.36 1226.02 1213.43 1226.15L1240.81 1273.57C1242.24 1276.04 1242.24 1279.09 1240.81 1281.57L1224.34 1310.05C1223.63 1311.28 1223.63 1312.81 1224.34 1314.05L1285.53 1420.03C1286.06 1420.95 1286.2 1422.04 1285.93 1423.06L1279.71 1446.28C1279.14 1448.42 1276.94 1449.68 1274.81 1449.11L1250.39 1442.57C1250.13 1442.5 1249.91 1442.33 1249.78 1442.1L1249.69 1441.95C1249.56 1441.72 1249.52 1441.45 1249.59 1441.2L1252.31 1431.07C1252.38 1430.81 1252.34 1430.54 1252.21 1430.31L1244.62 1417.17C1244.49 1416.94 1244.27 1416.77 1244.01 1416.7L1233.89 1413.99C1233.63 1413.92 1233.41 1413.75 1233.28 1413.52L1229.69 1407.31C1229.56 1407.08 1229.52 1406.81 1229.59 1406.55L1232.31 1396.43C1232.38 1396.17 1232.34 1395.9 1232.21 1395.67L1228.62 1389.46C1228.49 1389.23 1228.27 1389.06 1228.01 1388.99L1217.89 1386.28C1217.63 1386.21 1217.41 1386.04 1217.28 1385.81L1209.69 1372.67C1209.56 1372.44 1209.52 1372.17 1209.59 1371.91L1212.31 1361.79C1212.38 1361.53 1212.34 1361.26 1212.21 1361.03L1208.62 1354.82C1208.49 1354.59 1208.27 1354.42 1208.01 1354.35L1197.89 1351.64C1197.63 1351.57 1197.41 1351.4 1197.28 1351.17L1187.97 1335.05C1187.25 1333.81 1185.93 1333.05 1184.5 1333.05L1151.61 1333.07C1148.75 1333.07 1146.11 1331.54 1144.68 1329.07L1117.3 1281.65C1115.87 1279.17 1115.87 1276.12 1117.3 1273.64L1144.75 1226.17C1146.18 1223.7 1148.81 1222.18 1151.67 1222.18L1158.02 1222.17M1213.21 1225.79C1208.37 1232.74 1202.39 1238.84 1195.53 1243.8C1190.4 1247.51 1184.78 1250.59 1178.78 1252.93M1203.5 1222.15C1211.73 1211.26 1216.61 1197.7 1216.61 1183C1216.61 1147.1 1187.51 1118 1151.61 1118C1115.71 1118 1086.61 1147.1 1086.61 1183C1086.61 1200.53 1093.55 1216.44 1104.83 1228.13M1203.5 1222.15C1198.68 1228.53 1192.7 1234 1185.88 1238.24C1182.72 1240.21 1179.37 1241.91 1175.88 1243.32M1203.5 1222.15L1158.02 1222.17M1175.88 1243.32C1171.53 1237.55 1163.47 1235.8 1157.05 1239.5C1157.01 1239.53 1156.96 1239.55 1156.92 1239.58M1175.88 1243.32C1172.39 1244.72 1168.75 1245.83 1165 1246.62M1178.78 1252.93C1178.49 1257.62 1175.93 1262.09 1171.55 1264.62C1167.75 1266.82 1163.35 1267.09 1159.5 1265.74M1178.78 1252.93C1174.75 1254.49 1170.56 1255.72 1166.23 1256.58M1165 1246.62C1160.68 1247.52 1156.2 1248 1151.61 1248C1151.2 1248 1150.79 1248 1150.39 1247.99M1165 1246.62C1163.31 1243.36 1160.42 1240.81 1156.92 1239.58M1166.23 1256.58C1161.5 1257.51 1156.61 1258 1151.61 1258C1151.43 1258 1151.25 1258 1151.08 1258M1166.23 1256.58C1165.32 1260.47 1162.84 1263.76 1159.5 1265.74M1158.02 1222.17L1156.1 1221.07C1153.63 1219.64 1150.59 1219.64 1148.11 1221.07L1141.79 1224.71M1156.92 1239.58C1153.63 1241.53 1151.38 1244.58 1150.39 1247.99M1159.5 1265.74C1156.34 1264.63 1153.55 1262.43 1151.75 1259.31C1151.5 1258.88 1151.28 1258.44 1151.08 1258M1150.39 1247.99C1149.44 1251.21 1149.62 1254.76 1151.08 1258M1104.83 1228.13C1105.85 1227.17 1106.85 1226.24 1107.81 1225.36C1118.55 1215.37 1131.82 1218.42 1138.03 1222C1139.21 1222.68 1140.5 1223.59 1141.79 1224.71M1104.83 1228.13C1102.54 1230.25 1100.09 1232.53 1097.51 1234.94M1097.51 1234.94C1070.95 1259.71 1030.5 1297.63 1017.37 1309.37C1012.43 1313.79 1008.1 1319.05 1004.61 1325.1C986.935 1355.71 997.423 1394.85 1028.03 1412.53C1058.64 1430.2 1097.79 1419.71 1115.46 1389.1C1118.95 1383.05 1121.34 1376.67 1122.7 1370.19C1124.17 1363.17 1127.08 1350.27 1130.59 1335M1141.79 1224.71L1100.61 1248.46C1098.13 1249.89 1096.61 1252.53 1096.61 1255.39V1310.14C1096.61 1313 1098.13 1315.65 1100.61 1317.07L1129.11 1333.5C1129.74 1333.87 1130.24 1334.39 1130.59 1335" stroke="white" stroke-width="4"/>
</svg>
