<svg width="48" height="48" viewBox="0 0 48 48" fill="none" xmlns="http://www.w3.org/2000/svg">
<path d="M3.87287 33.1889H0.107955L4.28445 40.098L0 47.0071H3.8054L6.39631 42.5944H6.50426L9.09517 47.0071H12.9276L8.62287 40.098L12.7926 33.1889H9.05469L6.50426 37.5543H6.39631L3.87287 33.1889Z" fill="white"/>
<path d="M14.5199 47.0071H17.8192V36.6435H14.5199V47.0071ZM16.1729 35.4357C17.1108 35.4357 17.8665 34.7273 17.8665 33.8569C17.8665 32.9865 17.1108 32.2848 16.1729 32.2848C15.2418 32.2848 14.4794 32.9865 14.4794 33.8569C14.4794 34.7273 15.2418 35.4357 16.1729 35.4357Z" fill="white"/>
<path d="M22.8408 47.1825C24.2847 47.1825 25.2833 46.6225 25.8501 45.5632H25.931V47.0071H29.0347V39.9631C29.0347 37.7702 27.0848 36.5085 24.4466 36.5085C21.6601 36.5085 20.0812 37.9119 19.8181 39.8011L22.8611 39.9091C23.0028 39.2479 23.5493 38.843 24.4197 38.843C25.2293 38.843 25.7421 39.2344 25.7421 39.9293V39.9631C25.7421 40.5973 25.0539 40.7322 23.2861 40.8874C21.1878 41.0628 19.4335 41.8388 19.4335 44.1328C19.4335 46.1839 20.8572 47.1825 22.8408 47.1825ZM23.8596 45.0234C23.0972 45.0234 22.5574 44.6591 22.5574 43.9709C22.5574 43.3029 23.0837 42.8981 24.0216 42.7564C24.6356 42.6687 25.3912 42.5337 25.7623 42.3381V43.3231C25.7623 44.3352 24.9122 45.0234 23.8596 45.0234Z" fill="white"/>
<path d="M14.8359 21.3317H18.0341C18.0071 18.7475 15.9492 17 12.7376 17C9.5799 17 7.30611 18.7205 7.32635 21.2912C7.3196 23.3896 8.79048 24.5703 11.179 25.1168L12.6229 25.4542C14.141 25.805 14.8224 26.2166 14.8359 26.9925C14.8224 27.8359 14.033 28.4229 12.6903 28.4229C11.2127 28.4229 10.2411 27.7347 10.1669 26.4055H6.96875C7.00923 29.6374 9.25604 31.1825 12.7308 31.1825C16.1719 31.1825 18.2095 29.6239 18.223 26.9993C18.2095 24.793 16.7184 23.4435 13.9925 22.843L12.805 22.5732C11.5501 22.3033 10.7539 21.8849 10.7809 21.0618C10.7876 20.3061 11.4354 19.7596 12.7308 19.7596C14.033 19.7596 14.7482 20.3466 14.8359 21.3317Z" fill="white"/>
<path d="M22.8313 31.1825C24.2752 31.1825 25.2738 30.6225 25.8406 29.5632H25.9215V31.0071H29.0252V23.9631C29.0252 21.7702 27.0753 20.5085 24.4371 20.5085C21.6506 20.5085 20.0717 21.9119 19.8086 23.8011L22.8516 23.9091C22.9933 23.2479 23.5398 22.843 24.4102 22.843C25.2198 22.843 25.7326 23.2344 25.7326 23.9293V23.9631C25.7326 24.5973 25.0444 24.7322 23.2766 24.8874C21.1783 25.0629 19.424 25.8388 19.424 28.1328C19.424 30.1839 20.8477 31.1825 22.8313 31.1825ZM23.8501 29.0234C23.0877 29.0234 22.5479 28.6591 22.5479 27.9709C22.5479 27.3029 23.0742 26.8981 24.0121 26.7564C24.6261 26.6687 25.3817 26.5337 25.7528 26.3381V27.3232C25.7528 28.3352 24.9027 29.0234 23.8501 29.0234Z" fill="white"/>
<path d="M31.0426 31.0071H34.342V24.8739C34.342 23.8484 34.9425 23.1939 35.8061 23.1939C36.663 23.1939 37.2298 23.7944 37.2298 24.7525V31.0071H40.4009V24.82C40.4009 23.8281 40.9474 23.1939 41.8583 23.1939C42.695 23.1939 43.2887 23.7539 43.2887 24.7862V31.0071H46.5881V24.0305C46.5881 21.8377 45.2386 20.5085 43.282 20.5085C41.7504 20.5085 40.5426 21.3114 40.158 22.5462H40.0501C39.7734 21.3047 38.6602 20.5085 37.223 20.5085C35.8061 20.5085 34.7266 21.2844 34.2947 22.5462H34.18V20.6435H31.0426V31.0071Z" fill="white"/>
<path d="M1.19238 3.90127H5.38912V15.0071H8.68173V3.90127H12.8717V1.18891H1.19238V3.90127Z" fill="white"/>
<path d="M14.5028 15.0071H17.8022V4.64346H14.5028V15.0071ZM16.1559 3.43571C17.0938 3.43571 17.8494 2.72726 17.8494 1.85688C17.8494 0.986494 17.0938 0.28479 16.1559 0.28479C15.2248 0.28479 14.4624 0.986494 14.4624 1.85688C14.4624 2.72726 15.2248 3.43571 16.1559 3.43571Z" fill="white"/>
<path d="M22.8238 15.1825C24.2677 15.1825 25.2662 14.6225 25.833 13.5632H25.914V15.0071H29.0177V7.96306C29.0177 5.77023 27.0677 4.50851 24.4296 4.50851C21.643 4.50851 20.0642 5.91192 19.801 7.80113L22.844 7.90908C22.9857 7.24786 23.5322 6.84303 24.4026 6.84303C25.2123 6.84303 25.7251 7.23436 25.7251 7.92932V7.96306C25.7251 8.59729 25.0368 8.73223 23.2691 8.88742C21.1707 9.06284 19.4165 9.83877 19.4165 12.1328C19.4165 14.1839 20.8401 15.1825 22.8238 15.1825ZM23.8426 13.0234C23.0802 13.0234 22.5404 12.6591 22.5404 11.9709C22.5404 11.3029 23.0667 10.8981 24.0045 10.7564C24.6185 10.6687 25.3742 10.5337 25.7453 10.3381V11.3231C25.7453 12.3352 24.8952 13.0234 23.8426 13.0234Z" fill="white"/>
<path d="M34.3344 9.09658C34.3412 7.91583 35.0294 7.21412 36.0752 7.21412C37.121 7.21412 37.7417 7.90233 37.735 9.04935V15.0071H41.0344V8.40162C41.0411 6.06711 39.6175 4.50851 37.4381 4.50851C35.9065 4.50851 34.746 5.28444 34.2872 6.54615H34.1725V4.64346H31.0351V15.0071H34.3344V9.09658Z" fill="white"/>
</svg>
