<svg width="117" height="235" viewBox="0 0 117 235" fill="none" xmlns="http://www.w3.org/2000/svg">
<path d="M6.36 79.36C7.56 79 8.76 78.16 9.72 76.84C19.68 72.76 28.56 68.56 34.8 65.44C35.28 67.48 35.52 69.52 35.52 71.44C46.08 81.16 59.28 60.4 31.2 50.8L30 51.4C31.44 54.4 32.88 58 33.96 61.84C26.16 62.44 18.72 62.8 12.84 63.16C24.12 55.6 36.6 44.08 43.08 35.8C45.48 36.28 47.04 35.56 47.64 34.6L31.44 23.44C30.36 26.56 28.56 30.4 26.4 34.36C20.76 34.48 15.48 34.48 11.04 34.48C18.84 28.36 27.72 18.76 32.88 11.44C35.16 11.56 36.36 10.72 36.84 9.63999L18.36 0.759993C16.68 10 9.96 27.28 4.92 32.56C3.72 33.4 1.08 34.12 1.08 34.12L7.8 50.08C9.12 49.48 10.2 48.52 11.16 46.96C15 45.28 18.72 43.48 21.96 41.92C16.8 50.08 10.68 58 5.64 61.6C4.32 62.56 1.2 63.16 1.2 63.16L6.36 79.36ZM10.44 79C11.28 84.28 7.44 90.76 4.92 93.4C1.2 95.92 -0.96 100.12 1.08 104.44C3.48 109.36 10.8 109.84 13.56 106.24C17.28 101.2 17.4 91.6 12 79H10.44ZM18.72 77.92C19.68 84.28 19.8 92.8 18.12 100.24C26.76 111.76 42.48 93.28 20.16 77.56L18.72 77.92ZM76.68 89.2C87.48 96.04 93.24 104.92 95.88 111.16C106.68 125.08 133.56 96.04 77.4 87.76L76.68 89.2ZM65.04 72.4H84.36V82.72H65.04V72.4ZM84.36 31.96V41.8H65.04V31.96H84.36ZM84.36 58.72V69.04H65.04V58.72H84.36ZM84.36 55.36H65.04V45.16H84.36V55.36ZM100.92 78.52V33.52C104.04 32.92 105.48 32.32 106.32 31L90 19.96L83.28 28.6H79.92C80.4 25.72 81 22 81.6 18.4H110.16C111.84 18.4 113.16 17.8 113.52 16.48C108 11.56 98.64 4.24 98.64 4.24L90.36 15.04H82.2C82.68 11.8 83.16 8.8 83.52 6.16C86.28 5.67999 87.96 4.36 88.2 2.31999L66.24 0.399998C66.24 4.84 66.24 10 66.12 15.04H40.2L41.16 18.4H66C66 22.12 65.88 25.6 65.76 28.48L49.32 22.24V82.72H42.84C40.68 79.96 37.2 77.08 32.04 74.56L30.72 75.04C32.88 80.56 34.08 88.48 32.88 95.2C39.36 102.64 48.6 95.2 44.76 86.08H58.56C52.8 94.84 41.04 106.12 29.04 112.84L29.64 114.04C46.32 110.32 61.32 103.72 70.68 96.88C74.64 97.48 76.68 96.88 77.64 95.44L60.84 86.08H113.76C115.44 86.08 116.76 85.48 117 84.16C112.32 79.84 104.64 73.72 104.64 73.72L100.92 78.52ZM62.04 188.56C85.44 188.56 91.32 185.92 91.32 179.44C91.32 176.68 90.12 175 85.8 173.44L85.32 163H84.12C81.84 168.28 79.92 171.76 78.48 173.32C77.52 174.28 76.44 174.52 74.64 174.64C72.6 174.76 68.28 174.88 63.72 174.88H62.04C72.36 168.28 80.76 160.84 87.12 153.16C90 153.88 91.2 153.28 92.04 152.2L75.48 141.52C68.88 152.56 58.44 163.6 45.12 173.2V172.72V153.52C47.52 153.04 48.6 152.08 48.84 150.4L30.12 148.96V176.2C30.12 178.72 30.36 180.64 30.84 182.32C21.84 187.36 12.12 191.68 1.56 195.04L2.16 196.72C14.64 194.8 26.16 191.56 36.6 187.6C39.24 188.32 42.6 188.56 47.28 188.56H62.04ZM20.88 154.6C21.12 160.6 16.32 165.76 12.12 167.68C7.8 169.6 4.56 173.2 5.88 178.36C7.44 183.76 13.56 185.68 18.24 183.28C24.96 180.04 29.04 169.36 22.32 154.6H20.88ZM42.72 141.76C46.56 145.12 50.16 151.24 50.64 156.88C64.08 165.76 75.72 140.08 43.56 141.04L42.72 141.76ZM82.56 222.16H65.76V195.4C68.64 194.92 69.36 193.84 69.6 192.28L48.36 190.6V222.16H31.44V201.16C34.68 200.68 35.64 199.48 35.88 197.68L14.4 195.64V220.24C12.72 221.56 11.04 223.12 9.84 224.56L27 232.84L32.04 225.52H82.56V234.16H85.44C92.4 234.16 99.96 231.76 99.96 230.8V200.44C103.32 199.96 104.16 198.64 104.28 197.08L82.56 195.28V222.16ZM85.68 157.36C90.72 163.12 94.56 172 94.68 180.28C109.2 192.28 124.32 162.52 86.64 156.64L85.68 157.36ZM99.24 128.92L91.08 137.2H62.28C70.2 132.64 70.2 117.76 43.8 121L43.08 121.6C47.04 124.84 50.4 130.72 50.88 136.48C51.36 136.72 51.72 136.96 52.2 137.2H20.04C19.44 134.92 18.72 132.4 17.64 129.88H16.2C16.32 135.88 11.4 141.4 7.44 143.56C3.24 145.48 0.24 149.32 1.8 154.36C3.6 159.64 10.08 161.08 14.28 158.44C18.72 155.68 21.72 149.44 20.64 140.56H92.4C92.4 144.88 92.28 150.52 92.04 154.36L92.88 155.08C98.28 152.44 104.88 147.64 108.96 143.92C111.48 143.8 112.56 143.44 113.52 142.36L99.24 128.92Z" fill="#A8A8A8"/>
</svg>
