<svg width="116" height="236" viewBox="0 0 116 236" fill="none" xmlns="http://www.w3.org/2000/svg">
<path d="M54.76 31.64H35.8V22.04H54.76V31.64ZM92.44 22.04L85.12 31.64H72.52V22.04H92.44ZM85.12 44.84H72.52V35H92.56L85.12 44.84ZM89.56 58.52H72.52V48.2H97.36L89.56 58.52ZM35.8 48.2H54.76V58.52H35.8V48.2ZM35.8 35H54.76V44.84H35.8V35ZM18.76 67.88H21.88C30.64 67.88 35.8 64.16 35.8 62.96V61.88H109.48C111.28 61.88 112.6 61.28 112.96 59.96C108.28 55.76 100.96 50 98.56 48.2H103.12C104.92 48.2 106.12 47.6 106.48 46.28C101.68 41.96 94 35.96 92.8 35H103.12C104.92 35 106.12 34.4 106.48 33.08C102.04 29 94.96 23.48 93.16 22.04H106.72C108.4 22.04 109.72 21.44 110.08 20.12C104.68 15.2 95.68 8 95.68 8L87.76 18.68H65.44C76.6 17.6 82 -0.640005 52.48 1.04L51.88 1.63999C55.36 4.63999 57.4 10.52 56.68 15.8C58.96 17.6 61.24 18.44 63.52 18.68H38.2C39.64 16.76 40.96 14.84 42.28 12.8C45.16 13.28 46.84 12.32 47.44 10.88L25.72 1.15999C20.44 18.68 10.6 35.96 1.6 46.4L2.68 47.36C8.32 44.72 13.72 41.72 18.76 38V67.88ZM90.04 70.88H80.44L62.2 64.16V89.48H53.2V77.48C55.36 77.12 56.68 76.4 57.4 75.68L46.96 64.28L41.08 71.12H26.44L9.76 64.64V115.4H12.04C18.88 115.4 25.96 111.8 25.96 110.36V74.48H36.88V87.8C35.44 89 34 90.44 33.04 91.64L49.36 98.48L53.8 92.84H62.2V97.64H65.32C73.84 97.64 78.88 94.28 78.88 93.2V74.24H91.24V97.28C91.24 98.6 90.88 99.2 89.32 99.2C87.28 99.2 81.28 98.84 81.28 98.84V100.4C85.48 101.24 86.92 102.92 88 105.08C89.2 107.36 89.44 110.84 89.56 115.76C105.88 114.44 108.04 108.8 108.04 98.96V77C110.56 76.52 112.12 75.32 112.84 74.36L97.24 62.72L90.04 70.88ZM36.04 122.84C48.16 129.44 57.52 138.56 61.12 143.72C77.44 150.68 87.64 117.08 36.4 121.64L36.04 122.84ZM32.68 161.72L24.64 170H2.68L3.76 173.36H25.48C22.6 192.44 15.16 211.4 0.0400001 223.4L0.88 224.72C25.48 214.4 37.48 195.8 42.64 175.52C45.28 175.28 46.24 174.8 46.96 173.48L32.68 161.72ZM91.48 148.76C88.24 155.96 81.4 167.72 74.8 176.48C71.44 170.84 68.68 164.12 66.88 156.32V155.96C69.04 155.48 70.24 154.52 70.96 153.68L55.6 141.8L48.04 150.2H20.92L22 153.56H49.24V214.04C49.24 215.6 48.64 216.56 46.72 216.56C43.72 216.56 29.2 215.72 29.2 215.72V217.28C36.28 218.48 38.92 220.4 41.2 223.04C43.48 225.56 44.2 229.76 44.68 235.4C64.12 233.72 66.88 227.36 66.88 215.96V161.48C72.28 195.2 82.84 211.28 100.72 224.12C102.76 215.84 107.8 209.48 114.88 207.68L115.36 206.48C101.44 202.04 86.68 194.6 76.6 179.48C87.52 174.56 98.32 168.08 105.88 162.92C108.76 163.4 109.96 162.68 110.56 161.48L91.48 148.76Z" fill="#A8A8A8"/>
</svg>
