<svg width="119" height="234" viewBox="0 0 119 234" fill="none" xmlns="http://www.w3.org/2000/svg">
<path d="M61.64 58.32V37.2H69.2V58.32H61.64ZM30.44 43.68V15.36H44.96V44.76C41.12 40.2 35.72 34.8 35.72 34.8L30.44 43.68ZM69.2 12.72V33.84H61.64V12.72H69.2ZM94.04 12.72V33.84H86.12V12.72H94.04ZM86.12 58.32V37.2H94.04V58.32H86.12ZM94.76 105.72H86.12V84.12H110.24C112.04 84.12 113.36 83.52 113.6 82.2C108.56 77.04 99.56 69.36 99.56 69.36L91.64 80.76H86.12V61.68H94.04V66.96H96.92C102.92 66.96 110.96 63.24 111.08 62.04V15.48C113.48 14.88 115.04 13.8 115.76 12.84L100.52 0.959992L92.84 9.36H62.48L44.96 2.51999V9.36C40.16 5.04 35 0.719995 35 0.719995L26.96 12H1.4L2.36 15.36H13.64V45.48H1.64L2.6 48.84H13.64V81.96C7.88 83.28 3.08 84.36 0.2 84.96L7.76 103.92C9.2 103.44 10.52 102 11 100.44C28.04 89.4 39.56 80.52 46.52 74.52L46.16 73.44C40.88 74.88 35.6 76.32 30.44 77.64V48.84H43.64C44.12 48.84 44.6 48.84 44.96 48.72V69.72H47.48C54.56 69.72 61.64 65.88 61.64 64.2V61.68H69.2V80.76H44.24L45.2 84.12H69.2V105.72H33.92L34.88 109.08H115.04C116.72 109.08 118.16 108.48 118.4 107.16C113 101.64 103.28 93.24 103.28 93.24L94.76 105.72ZM9.44 142.68C10.28 150.72 6.8 159.72 3.8 163.32C0.68 165.84 -0.88 169.56 1.16 173.04C3.56 176.88 9.56 176.64 12.32 172.92C16.16 167.52 17.12 156.72 11.24 142.68H9.44ZM59.72 152.88C61.88 147.6 63.8 141.96 65.36 135.84C66.8 135.84 67.88 135.6 68.6 135.12V152.88H59.72ZM94.28 226.2H86V189.12H109.88C111.56 189.12 112.88 188.52 113.24 187.2C108.2 182.04 99.32 174.36 99.32 174.36L91.4 185.76H86V156.24H112.28C113.96 156.24 115.28 155.64 115.64 154.32C110.24 149.16 101 141.6 101 141.6L92.84 152.88H86V125.76C88.88 125.28 89.6 124.2 89.84 122.52L68.6 120.6V132.84L49.64 127.68C49.28 134.64 48.44 141.84 47.36 148.8C45.92 145.44 41.96 141.96 34.52 139.32L33.68 139.68V125.04C37.04 124.56 37.88 123.24 38.12 121.56L17 119.52V233.4H20.36C26.72 233.4 33.68 230.16 33.68 228.84V141C35.48 145.2 37.04 151.08 36.68 156.24C39.8 159.48 43.52 159.24 45.8 157.32C44.12 165.6 41.96 173.4 39.56 179.76L41 180.6C48.08 174.24 53.72 165.96 58.28 156.24H68.6V185.76H47.36L48.32 189.12H68.6V226.2H39.56L40.52 229.56H114.92C116.6 229.56 118.04 228.96 118.28 227.64C112.64 222.24 102.92 214.32 102.92 214.32L94.28 226.2Z" fill="#A8A8A8"/>
</svg>
