<svg width="115" height="234" viewBox="0 0 115 234" fill="none" xmlns="http://www.w3.org/2000/svg">
<path d="M45.96 62.64C46.2 60.36 46.32 58.08 46.32 55.68V33.72H67.2V62.64H45.96ZM89.28 62.64H84.84V33.72H108C109.8 33.72 111.12 33.12 111.48 31.8C105.84 26.76 96.48 19.2 96.48 19.2L88.08 30.36H84.84V5.75999C88.2 5.27999 89.04 4.07999 89.28 2.39999L67.2 0.239994V30.36H46.32V5.75999C49.44 5.27999 50.4 4.07999 50.64 2.39999L28.92 0.359993V30.36H4.2L5.16 33.72H28.92V55.68C28.92 58.08 28.92 60.36 28.68 62.64H0.36L1.32 66H28.56C26.88 85.08 20.16 100.32 4.08 112.32L4.8 113.28C31.92 104.28 43.08 87.72 45.72 66H67.2V113.04H70.56C77.16 113.04 84.84 108.72 84.84 107.04V66H110.64C112.32 66 113.76 65.4 114 64.08C108.12 58.8 98.16 50.88 98.16 50.88L89.28 62.64ZM42.6 143.4C41.64 148.8 40.32 154.08 38.76 159.24C38.28 155.4 34.68 151.08 25.68 149.16C27 147.36 28.32 145.44 29.52 143.4H42.6ZM3 204.6C34.8 195.12 49.44 175.92 56.64 152.4L57.36 154.8H67.08C65.64 171.24 60 188.04 41.52 200.16L42.36 201.12C67.56 193.2 77.88 178.32 81.84 162.48C89.64 172.92 96.12 186.12 97.68 198C113.4 210.6 125.52 176.76 82.92 157.56C83.16 156.6 83.28 155.76 83.4 154.8H108.96C110.64 154.8 111.84 154.2 112.2 152.88C108.6 149.52 103.08 144.96 100.8 143.04C106.8 139.08 106.8 127.68 85.56 125.04L84.6 125.64C87.24 129.72 89.64 135.96 89.64 141.72C92.52 144.12 95.52 144.72 98.04 144.12L92.64 151.44H83.76C84 148.56 84.24 145.68 84.24 142.92V125.04C87.12 124.68 88.08 123.48 88.32 121.8L67.56 119.88V142.68C67.56 145.56 67.44 148.44 67.32 151.44H56.88C57.48 149.64 57.96 147.84 58.44 145.92C61.2 145.56 62.28 145.2 63.12 143.88L49.56 132.12L41.64 140.04H31.56C33.36 136.8 34.92 133.2 36.48 129.36C39.24 129.36 40.8 128.4 41.28 126.84L19.92 120.6C17.4 139.08 10.2 156.24 1.92 167.52L3.12 168.48C10.32 164.64 16.68 159.72 22.32 153.36C24.84 156.84 27.12 161.16 27.84 165C31.32 167.16 34.68 166.68 36.72 164.76C30.36 180.72 19.56 194.16 2.28 203.16L3 204.6ZM31.8 166.68C20.88 169.92 8.76 172.68 2.52 173.4L9.12 189C10.56 188.52 11.76 187.32 12.24 185.76C21.24 178.56 27.72 172.32 32.04 167.88L31.8 166.68ZM19.2 200.88C17.76 207.6 10.8 213.72 6 216.12C1.68 218.52 -1.08 222.84 0.72 228C3 233.76 10.8 235.08 15.12 231.6C21.36 226.8 24.84 216.12 20.64 201L19.2 200.88ZM35.28 201.72C36.72 209.52 37.08 218.88 35.52 227.64C46.92 241.8 65.52 218.04 36.6 201.36L35.28 201.72ZM59.4 200.88C63.72 208.56 67.32 218.88 67.32 228.36C81.36 241.44 97.08 212.28 60.48 200.28L59.4 200.88ZM84.72 200.52C91.68 208.08 97.92 219.48 99.36 229.8C115.32 241.92 128.76 208.56 85.68 199.8L84.72 200.52Z" fill="#A8A8A8"/>
</svg>
