<svg width="238" height="231" viewBox="0 0 238 231" fill="none" xmlns="http://www.w3.org/2000/svg">
<path d="M13.64 2.28C17.12 6.12 20.72 12.6 21.56 18.72C36.68 28.56 50.24 0.479998 14.36 1.68L13.64 2.28ZM37.28 23.28H2.24L3.2 26.64H52.4C54.08 26.64 55.4 26.04 55.64 24.72C51.2 20.64 43.88 14.64 43.88 14.64L37.28 23.28ZM7.16 38.64L8.12 42H47.84C49.52 42 50.72 41.4 51.08 40.08C46.76 36 39.56 30.36 39.56 30.36L33.2 38.64H7.16ZM71.96 11.76H82.52V33.96C82.52 43.2 83.6 46.2 93.8 46.2H99.44C111.2 46.2 116.24 42.96 116.24 37.2C116.24 34.44 115.16 32.88 111.8 31.2L111.2 30.96H110.12C109.16 31.2 107.84 31.44 107 31.56C106.28 31.56 104.84 31.68 104.12 31.68H101.72H99.32C98 31.68 97.64 31.2 97.64 30V12.84C99.8 12.48 101.24 11.88 101.96 11.04L88.64 0.359993L81.2 8.4H74.36L56.6 2.28V17.64C56.6 27.96 55.64 41.04 46.52 51.72C43.04 48.72 39.56 46.08 39.56 46.08L33.2 54.36H7.16L8.12 57.72H47.84C49.52 57.72 50.72 57.12 51.08 55.8C50.36 55.08 49.52 54.36 48.56 53.52C69.56 44.04 71.96 27.48 71.96 17.64V11.76ZM23.48 96.84V73.56H33.56V96.84H23.48ZM36.2 107.04C41.24 107.04 48.44 103.92 48.56 102.96V75.6C50.72 75.12 52.16 74.28 52.76 73.44L39.08 63.12L32.48 70.2H23.96L8.72 64.2V112.08H10.88C17.12 112.08 23.48 108.84 23.48 107.4V100.2H33.56V107.04H36.2ZM86.36 58.32C83.96 66.24 80.48 73.68 75.8 80.4C68.84 74.88 63.32 67.8 59.84 58.32H86.36ZM94.76 46.32L85.76 54.96H52.04L53.12 58.32H57.92C60.44 70.92 64.4 80.64 69.56 88.32C60.92 98.04 49.4 106.08 35.24 111.72L35.96 113.16C52.64 109.8 65.96 104.16 76.64 96.72C83.36 103.44 91.76 108.24 101.72 112.32C103.88 104.4 108.68 99.12 115.52 97.56L115.64 96.12C105.56 94.2 95.96 91.56 87.44 87.48C94.88 80.04 100.4 71.16 104.36 61.32C107.24 61.08 108.44 60.6 109.28 59.28L94.76 46.32ZM138.32 1.2C142.04 5.27999 145.76 12 146.72 18.48C162.2 28.68 176.12 -0.480004 139.04 0.599997L138.32 1.2ZM165.44 22.92H122L122.96 26.28H183.2C184.88 26.28 186.2 25.68 186.44 24.36C181.4 19.8 173 13.2 173 13.2L165.44 22.92ZM128.24 38.52L129.2 41.88H176.84C178.52 41.88 179.72 41.28 180.08 39.96C175.16 35.4 166.76 28.92 166.76 28.92L159.32 38.52H128.24ZM159.32 54.24H128.24L129.2 57.6H176.84C178.52 57.6 179.72 57 180.08 55.68C175.16 51.12 166.76 44.64 166.76 44.64L159.32 54.24ZM145.76 96.72V74.16H161.12V96.72H145.76ZM159.92 70.8H146.24L130.52 64.68V111.72H132.68C139.04 111.72 145.76 108.36 145.76 106.92V100.08H161.12V107.16H163.76C169.04 107.16 176.6 104.04 176.72 103.08V76.56C179.12 76.08 180.56 75 181.28 74.16L166.88 63.24L159.92 70.8ZM215.84 44.28H214.16V5.64C217.52 5.16 218.36 3.84 218.6 2.16L197.12 0.119996V44.28H178.52L179.48 47.64H197.12V112.92H200.36C206.84 112.92 214.16 108.72 214.16 107.04V47.64H234.32C236 47.64 237.32 47.04 237.68 45.72C232.52 40.92 223.64 33.72 223.64 33.72L215.84 44.28ZM61.64 178.32V157.2H69.2V178.32H61.64ZM30.44 163.68V135.36H44.96V164.76C41.12 160.2 35.72 154.8 35.72 154.8L30.44 163.68ZM69.2 132.72V153.84H61.64V132.72H69.2ZM94.04 132.72V153.84H86.12V132.72H94.04ZM86.12 178.32V157.2H94.04V178.32H86.12ZM94.76 225.72H86.12V204.12H110.24C112.04 204.12 113.36 203.52 113.6 202.2C108.56 197.04 99.56 189.36 99.56 189.36L91.64 200.76H86.12V181.68H94.04V186.96H96.92C102.92 186.96 110.96 183.24 111.08 182.04V135.48C113.48 134.88 115.04 133.8 115.76 132.84L100.52 120.96L92.84 129.36H62.48L44.96 122.52V129.36C40.16 125.04 35 120.72 35 120.72L26.96 132H1.4L2.36 135.36H13.64V165.48H1.64L2.6 168.84H13.64V201.96C7.88 203.28 3.08 204.36 0.2 204.96L7.76 223.92C9.2 223.44 10.52 222 11 220.44C28.04 209.4 39.56 200.52 46.52 194.52L46.16 193.44C40.88 194.88 35.6 196.32 30.44 197.64V168.84H43.64C44.12 168.84 44.6 168.84 44.96 168.72V189.72H47.48C54.56 189.72 61.64 185.88 61.64 184.2V181.68H69.2V200.76H44.24L45.2 204.12H69.2V225.72H33.92L34.88 229.08H115.04C116.72 229.08 118.16 228.48 118.4 227.16C113 221.64 103.28 213.24 103.28 213.24L94.76 225.72ZM139.64 192C140.24 198.96 135.8 205.2 131.6 207.48C127.4 209.52 124.52 213.24 125.96 218.16C127.76 223.32 133.76 224.88 138.32 222.24C144.68 218.52 148.52 207.36 141.08 191.88L139.64 192ZM143.6 168.96H196.52C195.32 175.56 192.68 183.6 190.04 189L191 190.32C201.08 185.52 210.56 177.84 215.36 170.04C217.88 169.8 218.84 169.44 219.44 168.24L204.44 158.16L195.92 165.6H142.52L143.6 168.96ZM181.64 151.92H157.28L158.24 155.28H197.12C198.8 155.28 200 154.68 200.36 153.36C195.92 148.92 188.36 142.44 188.36 142.44L181.64 151.92ZM171.32 185.52C175.4 190.8 179.12 198.72 179.72 205.92C193.4 216.48 207.2 189.84 172.28 184.92L171.32 185.52ZM206.6 200.52H205.52C202.4 207.72 200.24 212.28 198.56 214.32C197.48 215.64 196.64 216 194.72 216.12C192.68 216.24 188.72 216.24 185 216.24H171.68C167.96 216.24 167.36 215.76 167.36 214.08V194.52C169.88 194.04 170.96 193.08 171.2 191.4L149.96 189.84V217.08C149.96 227.88 153.68 230.4 168.56 230.4H182.84C206.36 230.4 213.08 228.48 213.08 221.4C213.08 218.4 211.88 216.6 207.08 214.8L206.6 200.52ZM206.12 190.92C212.12 197.28 217.16 207.24 218 216.36C233.48 228.24 247.4 196.68 207.08 190.2L206.12 190.92ZM166.04 118.2C159.8 134.04 142.88 153 122.36 163.56L122.72 164.64C149.96 158.64 172.52 142.56 182.24 129.84C191.6 145.56 206.48 156.72 226.4 162.24C227.36 155.52 230 147.36 237.08 144.48V142.56C216.2 141.96 195.68 136.92 183.8 128.52C188.36 128.04 189.68 127.08 190.16 125.4L166.04 118.2Z" fill="#A8A8A8"/>
</svg>
